Fixed-Bold.sfdir
StartChar: exclam
Encoding: 33 33 1
Width: 500
Flags: MW
LayerCount: 2
Fore
SplineSet
182 78 m 0
 182 117 210 155 250 155 c 0
 286 155 318 122 318 77 c 0
 318 39 290 0 250 0 c 0
 211 0 182 37 182 78 c 0
182 634 m 0
 182 679 220 705 250 705 c 0
 282 705 318 680 318 633 c 0
 318 622 316 611 315 600 c 2
 273 256 l 2
 270 233 268 225 250 225 c 0
 230 225 229 236 226 265 c 2
 185 599 l 2
 183 610 182 622 182 634 c 0
EndSplineSet
EndChar
StartChar: quotedbl
Encoding: 34 34 2
Width: 500
Flags: MW
LayerCount: 2
Fore
SplineSet
111 650 m 0
 111 688 137 710 166 710 c 0
 195 710 221 689 221 649 c 0
 221 636 221 640 182 359 c 1
 150 359 l 1
 114 616 l 2
 113 627 111 638 111 650 c 0
279 650 m 0
 279 686 304 710 334 710 c 0
 364 710 389 687 389 650 c 0
 389 638 387 627 386 616 c 2
 350 359 l 1
 318 359 l 1
 318 359 279 638 279 650 c 0
EndSplineSet
EndChar
StartChar: numbersign
Encoding: 35 35 3
Width: 500
Flags: MW
LayerCount: 2
Fore
SplineSet
24 139 m 0
 23 156 43 157 56 157 c 2
 122 157 l 1
 156 343 l 1
 54 343 l 2
 44 343 25 344 24 361 c 0
 22 379 40 379 57 379 c 2
 164 379 l 1
 166 392 168 404 171 417 c 2
 214 659 l 2
 217 674 219 693 235 693 c 0
 245 693 254 684 254 672 c 0
 254 665 203 390 201 379 c 1
 356 379 l 1
 358 392 360 404 363 417 c 2
 406 659 l 2
 409 673 411 693 427 693 c 0
 437 693 445 684 446 672 c 1
 446 665 395 390 393 379 c 1
 457 379 l 2
 478 379 482 368 483 361 c 0
 485 343 465 343 451 343 c 2
 385 343 l 1
 351 157 l 1
 450 157 l 2
 464 157 482 156 483 139 c 0
 485 121 468 120 452 120 c 2
 345 120 l 1
 343 108 340 95 338 83 c 2
 293 -159 l 2
 291 -173 289 -193 273 -193 c 0
 263 -193 254 -184 254 -172 c 0
 253 -165 306 110 308 120 c 1
 153 120 l 1
 151 108 149 95 146 83 c 2
 102 -159 l 2
 99 -173 97 -193 81 -193 c 0
 71 -193 62 -184 62 -172 c 0
 62 -165 114 110 116 120 c 1
 52 120 l 1
 40 121 25 124 24 139 c 0
160 157 m 1
 314 157 l 1
 348 343 l 1
 194 343 l 1
 160 157 l 1
EndSplineSet
EndChar
StartChar: dollar
Encoding: 36 36 4
Width: 500
Flags: MW
LayerCount: 2
Fore
SplineSet
56 185 m 0
 56 239 91 252 110 252 c 0
 141 252 164 225 164 189 c 0
 164 171 158 140 124 130 c 0
 119 129 114 127 108 127 c 1
 131 78 164 52 230 43 c 1
 230 293 l 1
 212 298 193 302 176 310 c 0
 143 324 108 351 84 389 c 4
 66 418 56 455 56 497 c 0
 56 580 98 686 230 699 c 1
 230 750 l 1
 272 750 l 1
 272 699 l 1
 406 690 444 593 444 522 c 0
 444 469 409 456 390 456 c 0
 361 456 336 480 336 518 c 0
 336 535 341 570 378 579 c 0
 381 580 386 581 390 581 c 1
 378 603 355 643 272 651 c 1
 272 428 l 1
 359 409 400 359 422 311 c 0
 440 269 444 228 444 210 c 0
 444 151 425 14 272 -5 c 1
 272 -55 l 1
 230 -55 l 1
 230 -5 l 1
 83 7 56 127 56 185 c 0
126 546 m 0
 126 528 132 484 184 456 c 0
 196 449 212 443 230 439 c 1
 230 651 l 1
 170 642 126 609 126 546 c 0
272 44 m 1
 363 57 374 132 374 162 c 0
 374 181 369 242 304 272 c 0
 294 276 284 280 272 283 c 1
 272 44 l 1
EndSplineSet
EndChar
StartChar: percent
Encoding: 37 37 5
Width: 500
Flags: MW
LayerCount: 2
Fore
SplineSet
34 549 m 0
 34 697 84 750 124 750 c 0
 141 750 154 740 167 721 c 0
 198 675 236 646 277 646 c 0
 315 646 353 669 381 733 c 0
 385 743 390 750 398 750 c 0
 406 750 424 746 424 738 c 0
 424 734 424 728 419 715 c 2
 119 -37 l 2
 115 -47 112 -56 102 -56 c 0
 92 -56 77 -47 77 -40 c 0
 77 -31 80 -26 84 -15 c 2
 341 632 l 1
 341 632 l 1
 329 623 307 611 278 611 c 0
 244 611 215 628 193 647 c 1
 200 605 200 562 200 549 c 0
 200 398 159 347 124 347 c 0
 87 347 34 394 34 549 c 0
95 548 m 0
 95 476 95 383 125 383 c 0
 144 383 167 423 167 549 c 0
 167 671 145 714 125 714 c 0
 95 714 95 622 95 548 c 0
300 146 m 0
 300 294 350 347 390 347 c 0
 425 347 466 296 466 145 c 0
 466 0 427 -56 390 -56 c 0
 353 -56 300 -9 300 146 c 0
361 145 m 0
 361 73 361 -20 391 -20 c 0
 410 -20 433 20 433 146 c 0
 433 268 411 311 391 311 c 0
 361 311 361 219 361 145 c 0
EndSplineSet
EndChar
StartChar: ampersand
Encoding: 38 38 6
Width: 500
Flags: MW
LayerCount: 2
Fore
SplineSet
27 137 m 0
 27 153 28 181 43 213 c 0
 46 221 67 252 79 271 c 0
 86 282 115 329 118 332 c 1
 108 371 92 448 92 528 c 0
 92 643 150 705 199 705 c 0
 247 705 263 625 263 574 c 0
 263 539 247 497 230 462 c 0
 211 423 189 391 184 383 c 1
 207 297 258 195 281 153 c 1
 316 224 338 282 372 374 c 0
 374 380 375 384 375 385 c 0
 375 397 332 397 326 397 c 1
 326 444 l 1
 343 442 397 441 404 441 c 0
 421 441 447 442 468 444 c 1
 468 397 l 1
 437 397 415 396 410 384 c 0
 408 380 365 266 362 257 c 0
 344 207 323 161 299 118 c 1
 302 112 343 36 376 36 c 0
 390 36 431 50 434 118 c 1
 464 118 l 1
 463 42 424 -11 373 -11 c 0
 329 -11 285 19 256 53 c 1
 230 21 192 -11 144 -11 c 0
 80 -11 27 53 27 137 c 0
109 174 m 0
 109 49 131 36 150 36 c 0
 183 36 211 57 233 81 c 1
 211 112 191 147 173 184 c 4
 156 219 142 257 129 297 c 1
 110 258 109 197 109 174 c 0
159 565 m 0
 159 518 165 464 175 421 c 1
 223 500 227 543 227 575 c 0
 227 584 223 669 200 669 c 0
 184 669 159 647 159 565 c 0
EndSplineSet
EndChar
StartChar: quotesingle
Encoding: 39 39 7
Width: 500
Flags: MW
LayerCount: 2
Fore
SplineSet
195 650 m 0
 195 688 221 710 251 710 c 0
 271 710 305 698 305 648 c 0
 305 643 306 640 303 620 c 6
 300 590 289 524 266 359 c 1
 234 359 l 1
 199 614 l 2
 197 626 195 638 195 650 c 0
EndSplineSet
EndChar
StartChar: parenleft
Encoding: 40 40 8
Width: 500
Flags: MW
LayerCount: 2
Fore
SplineSet
180 251 m 0
 180 357 200 541 336 696 c 0
 352 713 389 750 404 750 c 0
 411 750 420 747 420 736 c 0
 420 731 419 730 406 715 c 0
 310 604 266 447 266 250 c 0
 266 162 275 70 298 -9 c 0
 335 -137 391 -198 416 -225 c 0
 416 -226 420 -230 420 -235 c 0
 420 -246 411 -249 404 -249 c 0
 387 -249 307 -182 250 -67 c 0
 209 16 180 126 180 251 c 0
EndSplineSet
EndChar
StartChar: parenright
Encoding: 41 41 9
Width: 500
Flags: MW
LayerCount: 2
Fore
SplineSet
81 -235 m 0
 81 -230 82 -229 95 -214 c 0
 191 -103 235 54 235 251 c 0
 235 408 206 585 96 713 c 0
 81 729 81 731 81 736 c 0
 81 747 89 750 96 750 c 0
 113 750 193 683 250 568 c 0
 291 485 319 375 319 250 c 0
 319 144 300 -40 164 -195 c 0
 148 -212 111 -249 96 -249 c 0
 89 -249 81 -246 81 -235 c 0
EndSplineSet
EndChar
StartChar: asterisk
Encoding: 42 42 10
Width: 500
Flags: MW
LayerCount: 2
Fore
SplineSet
64 440 m 0
 64 469 83 476 91 479 c 2
 213 528 l 1
 91 577 l 2
 83 580 64 587 64 616 c 0
 64 645 86 664 103 664 c 0
 108 664 116 662 126 653 c 2
 233 560 l 1
 214 688 l 2
 211 704 212 706 212 711 c 0
 212 739 235 750 250 750 c 0
 265 750 288 740 288 711 c 0
 288 706 289 704 286 688 c 2
 267 560 l 1
 374 653 l 2
 384 662 392 664 397 664 c 0
 414 664 436 645 436 616 c 0
 436 587 417 580 409 577 c 2
 287 528 l 1
 409 479 l 2
 417 476 436 469 436 440 c 0
 436 411 414 392 397 392 c 0
 393 392 385 393 374 403 c 2
 267 495 l 1
 279 418 l 2
 282 393 288 350 288 345 c 0
 288 317 265 306 250 306 c 0
 235 306 212 316 212 345 c 0
 212 350 211 352 214 368 c 2
 233 496 l 1
 126 403 l 2
 116 394 108 392 103 392 c 0
 86 392 64 411 64 440 c 0
EndSplineSet
EndChar
StartChar: plus
Encoding: 43 43 11
Width: 500
Flags: MW
LayerCount: 2
Fore
SplineSet
38 250 m 0
 38 266 55 268 66 268 c 2
 234 268 l 1
 234 596 l 2
 234 600 234 605 234 609 c 0
 235 621 239 632 250 632 c 0
 265 632 266 613 266 600 c 0
 266 596 266 592 266 590 c 2
 266 268 l 1
 430 268 l 2
 435 268 441 268 446 267 c 0
 456 266 462 261 462 250 c 0
 462 240 457 235 450 233 c 0
 446 232 440 232 436 232 c 2
 266 232 l 1
 266 -95 l 2
 266 -112 265 -132 250 -132 c 0
 240 -132 238 -124 236 -114 c 0
 235 -110 234 -104 234 -100 c 2
 234 232 l 1
 70 232 l 2
 66 232 61 232 58 232 c 0
 45 233 38 238 38 250 c 0
EndSplineSet
EndChar
StartChar: comma
Encoding: 44 44 12
Width: 500
Flags: MW
LayerCount: 2
Fore
SplineSet
176 78 m 0
 176 121 204 156 244 156 c 0
 295 156 324 99 324 31 c 0
 324 -108 231 -194 218 -194 c 0
 211 -194 202 -184 202 -174 c 0
 202 -168 205 -165 210 -160 c 0
 228 -142 282 -92 292 10 c 4
 292 13 292 17 292 20 c 1
 291 19 289 17 286 15 c 0
 278 9 264 0 244 0 c 0
 200 0 176 38 176 78 c 0
EndSplineSet
EndChar
StartChar: hyphen
Encoding: 45 45 13
Width: 500
Flags: MW
LayerCount: 2
Fore
SplineSet
116 174 m 1
 116 271 l 1
 384 271 l 1
 384 174 l 1
 116 174 l 1
EndSplineSet
EndChar
StartChar: period
Encoding: 46 46 14
Width: 500
Flags: MW
LayerCount: 2
Fore
SplineSet
182 78 m 0
 182 125 217 156 250 156 c 0
 286 156 318 123 318 78 c 0
 318 39 290 0 250 0 c 0
 214 0 182 33 182 78 c 0
EndSplineSet
EndChar
StartChar: slash
Encoding: 47 47 15
Width: 500
Flags: MW
LayerCount: 2
Fore
SplineSet
56 -231 m 0
 56 -224 59 -217 66 -197 c 2
 408 721 l 2
 411 730 418 748 430 748 c 0
 438 748 444 740 444 731 c 0
 444 722 439 714 436 706 c 2
 92 -221 l 2
 89 -230 85 -249 72 -249 c 0
 64 -249 56 -240 56 -231 c 0
EndSplineSet
EndChar
StartChar: two
Encoding: 50 50 18
Width: 500
Flags: MW
LayerCount: 2
Fore
SplineSet
50 0 m 1
 50 18 l 2
 50 38 50 40 61 52 c 2
 236 257 l 2
 297 328 330 396 330 465 c 0
 330 540 290 608 215 608 c 0
 184 608 150 597 125 573 c 1
 128 572 133 571 136 569 c 4
 153 561 175 543 175 501 c 0
 175 451 140 429 112 429 c 0
 91 429 50 444 50 503 c 0
 50 593 132 655 237 655 c 0
 360 655 450 581 450 466 c 0
 450 371 394 324 295 240 c 0
 256 207 211 164 170 125 c 1
 298 125 l 2
 312 125 377 125 387 131 c 0
 399 138 406 202 409 222 c 1
 450 222 l 1
 423 0 l 1
 50 0 l 1
EndSplineSet
EndChar
StartChar: five
Encoding: 53 53 21
Width: 500
Flags: MW
LayerCount: 2
Fore
SplineSet
50 159 m 0
 50 220 95 229 108 229 c 0
 129 229 166 214 166 161 c 0
 166 125 147 103 122 96 c 0
 119 95 114 94 110 94 c 1
 147 37 201 32 222 32 c 0
 259 32 283 44 299 64 c 5
 327 100 327 158 327 205 c 0
 327 254 326 307 308 340 c 0
 297 360 279 373 249 373 c 0
 213 373 166 363 132 317 c 0
 126 309 124 305 113 305 c 0
 94 305 94 318 94 336 c 2
 94 628 l 2
 94 644 94 655 106 655 c 0
 109 655 110 654 118 651 c 0
 141 642 187 623 253 623 c 0
 290 623 336 629 386 651 c 0
 396 655 396 655 399 655 c 0
 409 655 411 644 411 637 c 0
 411 612 331 499 204 499 c 0
 174 499 164 501 140 506 c 1
 140 374 l 1
 181 406 228 409 253 409 c 0
 382 409 450 316 450 201 c 0
 450 79 365 -11 226 -11 c 0
 118 -11 50 74 50 159 c 0
EndSplineSet
EndChar
StartChar: seven
Encoding: 55 55 23
Width: 500
Flags: MW
LayerCount: 2
Fore
SplineSet
56 422 m 1
 86 676 l 1
 127 676 l 1
 129 666 130 657 148 653 c 1
 160 649 288 644 308 644 c 2
 486 644 l 1
 486 609 486 607 477 596 c 2
 342 416 l 2
 312 375 294 316 286 249 c 0
 280 202 277 154 277 106 c 2
 277 60 l 2
 277 -6 236 -11 222 -11 c 0
 217 -11 168 -11 168 59 c 0
 168 207 230 342 314 454 c 2
 362 519 l 1
 215 519 l 2
 200 519 130 519 120 513 c 0
 117 511 106 498 97 422 c 1
 56 422 l 1
EndSplineSet
EndChar
StartChar: nine
Encoding: 57 57 25
Width: 500
Flags: MW
LayerCount: 2
Fore
SplineSet
42 440 m 0
 42 510 66 567 106 604 c 5
 143 637 194 655 252 655 c 0
 458 655 458 396 458 329 c 0
 458 73 321 -11 208 -11 c 0
 111 -11 67 46 67 114 c 0
 67 152 88 178 122 178 c 0
 156 178 176 150 176 116 c 0
 176 71 143 57 133 54 c 1
 159 34 190 32 206 32 c 0
 266 32 304 77 319 116 c 0
 332 150 340 209 340 282 c 2
 340 304 l 1
 307 234 265 227 235 227 c 0
 128 227 42 302 42 440 c 0
160 438 m 0
 160 384 160 338 173 306 c 0
 184 279 205 263 243 263 c 0
 316 263 339 365 339 428 c 0
 339 462 338 520 328 553 c 0
 325 563 304 616 253 616 c 0
 210 616 188 599 175 572 c 0
 160 539 160 491 160 438 c 0
EndSplineSet
EndChar
StartChar: colon
Encoding: 58 58 26
Width: 500
Flags: MW
LayerCount: 2
Fore
SplineSet
182 78 m 0
 182 121 213 156 250 156 c 0
 287 156 318 121 318 78 c 0
 318 35 287 0 250 0 c 0
 213 0 182 35 182 78 c 0
182 366 m 0
 182 409 213 444 250 444 c 0
 287 444 318 409 318 366 c 0
 318 323 287 288 250 288 c 0
 213 288 182 323 182 366 c 0
EndSplineSet
EndChar
StartChar: semicolon
Encoding: 59 59 27
Width: 500
Flags: MW
LayerCount: 2
Fore
SplineSet
176 78 m 4
 176 121 204 156 244 156 c 4
 295 156 324 99 324 31 c 4
 324 -108 231 -194 218 -194 c 4
 211 -194 202 -184 202 -174 c 4
 202 -168 205 -165 210 -160 c 4
 227 -143 282 -93 292 8 c 4
 292 12 292 16 292 20 c 5
 292 20 290 18 288 17 c 4
 281 11 266 0 244 0 c 4
 200 0 176 38 176 78 c 4
176 367 m 0
 176 414 211 445 244 445 c 0
 280 445 312 412 312 367 c 0
 312 328 284 289 244 289 c 0
 208 289 176 322 176 367 c 0
EndSplineSet
EndChar
StartChar: less
Encoding: 60 60 28
Width: 500
Flags: MW
LayerCount: 2
Fore
SplineSet
54 250 m 1
 55 262 60 268 66 272 c 2
 424 566 l 2
 428 569 432 572 436 572 c 0
 441 572 446 565 446 555 c 0
 446 542 437 536 434 533 c 2
 126 281 l 2
 88 250 l 1
 127 218 l 2
 434 -34 l 2
 437 -36 446 -43 446 -56 c 0
 446 -66 441 -73 436 -73 c 0
 432 -73 428 -69 424 -66 c 2
 66 227 l 2
 61 232 55 238 54 250 c 1
EndSplineSet
EndChar
StartChar: equal
Encoding: 61 61 29
Width: 500
Flags: MW
LayerCount: 2
Fore
SplineSet
36 139 m 0
 36 155 45 157 52 157 c 2
 450 157 l 1
 462 156 464 146 464 139 c 0
 464 124 456 121 450 120 c 1
 51 120 l 2
 37 120 36 131 36 139 c 0
36 361 m 0
 36 376 44 379 52 379 c 2
 450 379 l 2
 462 379 464 368 464 362 c 0
 464 346 456 343 450 343 c 2
 51 343 l 2
 37 343 36 354 36 361 c 0
EndSplineSet
EndChar
StartChar: greater
Encoding: 62 62 30
Width: 500
Flags: MW
LayerCount: 2
Fore
SplineSet
54 -56 m 0
 54 -47 58 -41 66 -34 c 2
 365 211 l 6
 412 250 l 1
 396 262 380 276 364 289 c 2
 66 533 l 2
 63 536 54 542 54 555 c 0
 54 565 59 572 64 572 c 0
 68 572 72 569 76 566 c 2
 434 272 l 2
 439 268 446 262 446 250 c 0
 446 238 439 232 434 228 c 2
 76 -66 l 2
 72 -69 68 -73 64 -73 c 0
 59 -73 54 -66 54 -56 c 0
EndSplineSet
EndChar
StartChar: question
Encoding: 63 63 31
Width: 500
Flags: MW
LayerCount: 2
Fore
SplineSet
70 573 m 0
 70 637 122 700 243 700 c 0
 275 700 430 700 430 571 c 0
 430 508 388 481 371 469 c 0
 338 447 257 386 257 283 c 2
 257 256 l 2
 257 232 257 226 236 226 c 0
 216 226 216 231 216 253 c 2
 216 291 l 2
 216 356 240 433 294 498 c 0
 311 518 319 534 319 578 c 0
 319 625 318 664 238 664 c 0
 198 664 162 652 139 633 c 1
 141 632 179 619 179 572 c 0
 179 531 152 509 124 509 c 0
 102 509 70 525 70 573 c 0
168 78 m 0
 168 121 199 156 236 156 c 0
 273 156 304 121 304 78 c 0
 304 35 273 0 236 0 c 0
 199 0 168 35 168 78 c 0
EndSplineSet
EndChar
StartChar: at
Encoding: 64 64 32
Width: 500
Flags: MW
LayerCount: 2
Fore
SplineSet
36 347 m 0
 36 571 128 700 250 700 c 0
 366 700 464 583 464 343 c 0
 464 209 444 128 389 128 c 0
 377 128 339 129 316 168 c 1
 298 143 275 128 249 128 c 0
 183 128 122 199 122 347 c 0
 122 494 182 566 249 566 c 0
 279 566 316 545 337 482 c 1
 337 482 l 1
 359 482 l 2
 378 482 378 480 378 453 c 2
 378 221 l 2
 378 207 378 164 395 164 c 0
 426 164 429 252 429 332 c 0
 429 581 335 664 250 664 c 0
 150 664 71 557 71 347 c 0
 71 151 140 30 252 30 c 0
 298 30 357 44 416 86 c 0
 424 93 426 93 436 93 c 2
 446 93 l 2
 456 93 464 93 464 79 c 0
 464 74 462 70 462 69 c 0
 428 40 390 23 351 11 c 0
 312 -2 279 -6 252 -6 c 0
 117 -6 36 139 36 347 c 0
195 347 m 0
 195 221 222 164 251 164 c 0
 273 164 291 184 305 211 c 1
 305 211 l 1
 305 453 l 2
 305 468 305 471 307 478 c 1
 292 514 270 530 251 530 c 0
 222 530 195 473 195 347 c 0
EndSplineSet
EndChar
StartChar: A
Encoding: 65 65 33
Width: 500
Flags: MW
LayerCount: 2
Fore
SplineSet
23 0 m 1
 23 47 l 1
 29 47 28 47 36 47 c 1
 69 49 81 53 85 70 c 2
 224 672 l 2
 231 702 242 698 251 698 c 0
 264 698 270 696 276 672 c 2
 421 47 l 1
 477 47 l 1
 477 47 l 1
 477 0 l 1
 451 3 403 3 375 3 c 0
 347 3 288 3 263 0 c 1
 263 47 l 1
 318 47 l 1
 318 47 l 1
 289 176 l 1
 149 176 l 1
 125 70 l 2
 122 57 122 59 122 58 c 0
 122 46 166 47 174 47 c 1
 174 0 l 1
 161 0 126 3 95 3 c 0
 66 3 41 1 23 0 c 1
159 224 m 1
 278 224 l 1
 218 480 l 1
 159 224 l 1
EndSplineSet
EndChar
StartChar: B
Encoding: 66 66 34
Width: 500
Flags: MW
LayerCount: 2
Fore
SplineSet
24 0 m 1
 24 47 l 1
 24 47 l 1
 90 47 l 1
 90 639 l 1
 24 639 l 1
 24 639 l 1
 24 686 l 1
 290 686 l 2
 394 686 441 602 441 514 c 0
 441 442 406 379 338 360 c 1
 427 342 459 264 459 186 c 0
 459 90 412 0 308 0 c 2
 24 0 l 1
190 47 m 1
 190 47 l 1
 282 47 l 2
 320 47 348 104 348 188 c 0
 348 196 347 251 336 290 c 1
 323 339 304 339 289 339 c 2
 190 339 l 1
 190 47 l 1
190 375 m 1
 264 375 l 2
 319 375 333 442 333 514 c 0
 333 645 262 639 280 639 c 2
 190 639 l 1
 190 639 l 1
 190 375 l 1
EndSplineSet
EndChar
StartChar: C
Encoding: 67 67 35
Width: 500
Flags: MW
LayerCount: 2
Fore
SplineSet
39 343 m 0
 39 579 156 697 283 697 c 0
 332 697 364 673 392 638 c 1
 432 688 l 2
 438 695 439 697 446 697 c 0
 459 697 460 688 460 669 c 2
 460 454 l 2
 460 428 459 426 440 426 c 0
 430 426 422 426 421 440 c 0
 406 596 347 650 296 650 c 0
 267 650 214 636 182 566 c 1
 155 506 153 411 153 343 c 0
 153 251 159 182 177 132 c 1
 199 71 246 36 297 36 c 0
 356 36 420 100 425 231 c 0
 426 248 432 248 442 248 c 0
 455 248 460 247 460 227 c 0
 460 124 397 -11 284 -11 c 0
 152 -11 39 111 39 343 c 0
EndSplineSet
EndChar
StartChar: D
Encoding: 68 68 36
Width: 500
Flags: MW
LayerCount: 2
Fore
SplineSet
22 0 m 1
 22 47 l 1
 22 47 l 1
 84 47 l 1
 84 639 l 1
 22 639 l 1
 22 639 l 1
 22 686 l 1
 264 686 l 2
 368 686 463 575 463 337 c 0
 463 111 371 0 264 0 c 2
 22 0 l 1
179 47 m 1
 179 47 l 1
 235 47 l 2
 290 47 324 82 341 132 c 0
 355 176 359 233 359 336 c 0
 359 456 354 509 341 548 c 0
 323 604 286 639 234 639 c 2
 179 639 l 1
 179 639 l 1
 179 47 l 1
EndSplineSet
EndChar
StartChar: E
Encoding: 69 69 37
Width: 500
Flags: MW
LayerCount: 2
Fore
SplineSet
26 0 m 1
 26 47 l 1
 26 47 l 1
 98 47 l 1
 98 633 l 1
 26 633 l 1
 26 633 l 1
 26 680 l 1
 436 680 l 1
 458 439 l 1
 425 439 l 1
 414 555 400 633 288 633 c 2
 199 633 l 1
 199 633 l 1
 199 376 l 1
 226 376 l 2
 293 376 297 419 297 493 c 1
 331 493 l 1
 331 212 l 1
 297 212 l 1
 297 286 292 329 226 329 c 2
 199 329 l 1
 199 47 l 1
 199 47 l 1
 289 47 l 2
 414 47 431 140 446 274 c 1
 479 274 l 1
 447 0 l 1
 26 0 l 1
EndSplineSet
EndChar
StartChar: F
Encoding: 70 70 38
Width: 500
Flags: MW
LayerCount: 2
Fore
SplineSet
27 0 m 1
 27 47 l 1
 27 47 l 1
 102 47 l 1
 102 633 l 1
 27 633 l 1
 27 633 l 1
 27 680 l 1
 444 680 l 1
 467 439 l 1
 432 439 l 1
 421 553 409 633 293 633 c 2
 207 633 l 1
 207 633 l 1
 207 364 l 1
 232 364 l 2
 301 364 306 406 306 481 c 1
 341 481 l 1
 341 200 l 1
 306 200 l 1
 306 275 301 317 232 317 c 2
 207 317 l 1
 207 47 l 1
 301 47 l 1
 301 47 l 1
 301 0 l 1
 269 3 193 3 158 3 c 0
 127 3 54 3 27 0 c 1
EndSplineSet
EndChar
StartChar: G
Encoding: 71 71 39
Width: 500
Flags: MW
LayerCount: 2
Fore
SplineSet
36 343 m 0
 36 575 139 697 261 697 c 0
 297 697 330 681 361 638 c 1
 399 688 l 2
 405 695 406 697 412 697 c 0
 424 697 424 688 424 669 c 2
 424 454 l 2
 424 428 423 426 405 426 c 0
 395 426 389 426 388 440 c 0
 373 600 317 650 273 650 c 0
 262 650 204 652 163 554 c 1
 134 486 141 367 141 342 c 0
 141 286 139 195 164 128 c 1
 197 46 253 36 273 36 c 0
 279 36 298 40 311 60 c 0
 314 69 326 87 326 128 c 2
 326 229 l 1
 247 229 l 1
 247 229 l 1
 247 276 l 1
 274 273 339 273 369 273 c 0
 397 273 442 273 468 276 c 1
 468 229 l 1
 424 229 l 1
 424 28 l 2
 424 13 424 0 414 0 c 0
 409 0 367 28 348 52 c 1
 350 52 338 -11 260 -11 c 0
 145 -11 36 103 36 343 c 0
EndSplineSet
EndChar
StartChar: H
Encoding: 72 72 40
Width: 500
Flags: MW
LayerCount: 2
Fore
SplineSet
22 0 m 1
 22 47 l 1
 22 47 l 1
 82 47 l 1
 82 639 l 1
 22 639 l 1
 22 639 l 1
 22 686 l 1
 45 683 104 683 131 683 c 0
 158 683 217 683 240 686 c 1
 240 639 l 1
 240 639 l 1
 180 639 l 1
 180 380 l 1
 319 380 l 1
 319 639 l 1
 259 639 l 1
 259 639 l 1
 259 686 l 1
 282 683 341 683 368 683 c 0
 395 683 454 683 477 686 c 1
 477 639 l 1
 477 639 l 1
 417 639 l 1
 417 47 l 1
 477 47 l 1
 477 47 l 1
 477 0 l 1
 454 3 395 3 368 3 c 0
 341 3 282 3 259 0 c 1
 259 47 l 1
 259 47 l 1
 319 47 l 1
 319 333 l 1
 180 333 l 1
 180 47 l 1
 240 47 l 1
 240 47 l 1
 240 0 l 1
 217 3 158 3 131 3 c 0
 104 3 45 3 22 0 c 1
EndSplineSet
EndChar
StartChar: I
Encoding: 73 73 41
Width: 500
Flags: MW
LayerCount: 2
Fore
SplineSet
100 0 m 1
 100 47 l 1
 100 47 l 1
 198 47 l 1
 198 639 l 1
 100 639 l 1
 100 639 l 1
 100 686 l 1
 134 683 212 683 250 683 c 0
 288 683 366 683 400 686 c 1
 400 639 l 1
 400 639 l 1
 304 639 l 1
 304 47 l 1
 400 47 l 1
 400 47 l 1
 400 0 l 1
 366 3 288 3 250 3 c 0
 212 3 134 3 100 0 c 1
EndSplineSet
EndChar
StartChar: J
Encoding: 74 74 42
Width: 500
Flags: MW
LayerCount: 2
Fore
SplineSet
34 114 m 0
 34 166 64 191 92 191 c 0
 117 191 149 168 149 114 c 0
 149 57 109 39 117 43 c 1
 142 30 166 25 187 25 c 0
 303 25 275 203 275 151 c 2
 275 639 l 1
 156 639 l 1
 156 639 l 1
 156 686 l 1
 197 683 270 683 316 683 c 0
 344 683 419 683 444 686 c 1
 444 639 l 1
 376 639 l 1
 376 151 l 2
 376 140 374 128 373 117 c 0
 357 33 287 -11 191 -11 c 0
 98 -11 34 33 34 114 c 0
EndSplineSet
EndChar
StartChar: K
Encoding: 75 75 43
Width: 500
Flags: MW
LayerCount: 2
Fore
SplineSet
22 0 m 1
 22 47 l 1
 22 47 l 1
 82 47 l 1
 82 639 l 1
 22 639 l 1
 22 639 l 1
 22 686 l 1
 45 683 104 683 131 683 c 0
 158 683 217 683 240 686 c 1
 240 639 l 1
 240 639 l 1
 180 639 l 1
 180 338 l 1
 353 613 l 1
 362 619 357 622 366 626 c 1
 349 638 333 639 320 639 c 1
 320 686 l 1
 346 683 378 683 404 683 c 0
 433 683 447 684 464 686 c 1
 464 639 l 1
 470 639 l 1
 399 639 410 634 389 602 c 2
 277 424 l 1
 420 66 l 2
 425 53 428 47 460 47 c 2
 473 47 l 1
 473 0 l 1
 441 3 416 3 385 3 c 0
 360 3 303 3 281 0 c 1
 281 47 l 1
 291 47 328 48 322 60 c 1
 323 58 323 60 319 69 c 2
 216 330 l 1
 180 270 l 1
 180 47 l 1
 240 47 l 1
 240 47 l 1
 240 0 l 1
 217 3 158 3 131 3 c 0
 104 3 45 3 22 0 c 1
EndSplineSet
EndChar
StartChar: L
Encoding: 76 76 44
Width: 500
Flags: MW
LayerCount: 2
Fore
SplineSet
28 0 m 1
 28 47 l 1
 28 47 l 1
 107 47 l 1
 107 639 l 1
 28 639 l 1
 28 639 l 1
 28 686 l 1
 56 683 129 683 161 683 c 0
 197 683 275 683 307 686 c 1
 307 639 l 1
 307 639 l 1
 209 639 l 1
 209 47 l 1
 209 47 l 1
 284 47 l 2
 414 47 426 205 432 274 c 1
 466 274 l 1
 443 0 l 1
 28 0 l 1
EndSplineSet
EndChar
StartChar: O
Encoding: 79 79 47
Width: 500
Flags: MW
LayerCount: 2
Fore
SplineSet
37 339 m 0
 37 581 138 697 250 697 c 0
 357 697 461 587 461 339 c 0
 461 105 363 -11 249 -11 c 0
 143 -11 37 96 37 339 c 0
148 352 m 0
 148 284 149 193 168 128 c 0
 182 79 206 31 250 31 c 0
 291 31 322 80 335 138 c 0
 349 202 351 268 351 352 c 0
 351 428 351 488 337 548 c 0
 321 617 288 657 249 657 c 0
 219 657 182 630 161 550 c 1
 148 493 148 416 148 352 c 0
EndSplineSet
EndChar
StartChar: P
Encoding: 80 80 48
Width: 734
Flags: MW
LayerCount: 2
Fore
SplineSet
25 0 m 1
 25 47 l 1
 25 47 l 1
 94 47 l 1
 94 639 l 1
 25 639 l 1
 25 639 l 1
 25 686 l 1
 289 686 l 2
 396 686 459 601 459 491 c 0
 459 373 385 302 296 302 c 2
 190 302 l 1
 190 47 l 1
 259 47 l 1
 259 47 l 1
 259 0 l 1
 234 3 170 3 142 3 c 0
 114 3 50 3 25 0 c 1
186 343 m 1
 262 343 l 2
 355 343 355 413 355 491 c 0
 355 571 354 639 262 639 c 2
 186 639 l 1
 186 639 l 1
 186 343 l 1
EndSplineSet
EndChar
StartChar: Q
Encoding: 81 81 49
Width: 500
Flags: MW
LayerCount: 2
Fore
SplineSet
37 339 m 0
 37 581 138 697 250 697 c 0
 357 697 461 587 461 339 c 0
 461 247 446 91 342 18 c 1
 363 -41 381 -41 393 -41 c 0
 407 -41 437 -34 440 -4 c 0
 441 4 441 18 452 18 c 0
 465 18 465 0 465 -11 c 0
 465 -31 466 -194 384 -194 c 0
 315 -194 308 -100 303 -2 c 1
 314 0 286 -11 250 -11 c 0
 139 -11 37 101 37 339 c 0
143 340 m 0
 143 223 148 129 190 64 c 1
 190 68 190 73 190 73 c 0
 190 117 214 155 250 155 c 0
 281 155 303 127 320 82 c 1
 356 151 355 258 355 340 c 0
 355 422 354 477 342 537 c 0
 325 617 288 657 249 657 c 0
 221 657 176 633 155 528 c 1
 143 466 143 400 143 340 c 0
216 73 m 0
 216 65 218 29 250 29 c 0
 267 29 285 39 297 51 c 1
 293 87 283 119 251 119 c 0
 227 119 216 94 216 73 c 0
EndSplineSet
EndChar
StartChar: R
Encoding: 82 82 50
Width: 500
Flags: MW
LayerCount: 2
Fore
SplineSet
22 0 m 1
 22 47 l 1
 22 47 l 1
 84 47 l 1
 84 639 l 1
 22 639 l 1
 22 639 l 1
 22 686 l 1
 242 686 l 2
 354 686 418 603 418 500 c 0
 418 429 382 364 318 339 c 1
 353 316 378 280 385 219 c 0
 386 216 390 168 392 145 c 0
 397 82 402 25 433 25 c 0
 451 25 464 50 467 94 c 0
 468 110 470 117 482 117 c 0
 489 117 498 117 498 94 c 0
 498 83 493 -11 428 -11 c 0
 389 -11 316 -1 297 80 c 0
 292 102 293 106 293 169 c 0
 293 231 292 255 279 287 c 0
 263 325 244 325 231 325 c 2
 174 325 l 1
 174 47 l 1
 236 47 l 1
 236 47 l 1
 236 0 l 1
 213 3 155 3 129 3 c 0
 103 3 45 3 22 0 c 1
174 361 m 1
 227 361 l 2
 317 361 317 431 317 500 c 0
 317 571 317 639 228 639 c 2
 174 639 l 1
 174 639 l 1
 174 361 l 1
EndSplineSet
EndChar
StartChar: S
Encoding: 83 83 51
Width: 500
Flags: MW
LayerCount: 2
Fore
SplineSet
50 17 m 2
 50 199 l 2
 50 222 50 228 67 228 c 0
 82 228 82 223 83 205 c 0
 85 153 101 116 123 92 c 0
 167 42 235 36 273 36 c 0
 361 36 384 106 384 153 c 0
 384 187 368 213 346 232 c 0
 316 259 273 274 245 283 c 0
 199 296 170 305 148 316 c 0
 80 350 50 424 50 495 c 0
 50 593 102 697 226 697 c 0
 252 697 310 696 364 637 c 1
 402 688 l 10
 405 693 408 697 413 697 c 0
 426 697 426 688 426 669 c 2
 426 486 l 2
 426 463 426 458 409 458 c 0
 391 458 395 466 393 480 c 1
 389 573 328 654 227 654 c 0
 140 654 118 587 118 549 c 0
 118 476 162 446 212 428 c 2
 294 398 l 2
 412 355 451 274 451 203 c 0
 451 119 412 -11 273 -11 c 0
 243 -11 162 -6 111 48 c 1
 81 5 l 2
 74 -6 69 -11 63 -11 c 0
 50 -11 50 -2 50 17 c 2
EndSplineSet
EndChar
StartChar: T
Encoding: 84 84 52
Width: 500
Flags: MW
LayerCount: 2
Fore
SplineSet
26 434 m 1
 40 675 l 1
 460 675 l 1
 474 434 l 1
 442 434 l 1
 436 546 430 628 339 628 c 2
 298 628 l 1
 298 628 l 1
 298 47 l 1
 394 47 l 1
 394 47 l 1
 394 0 l 1
 360 3 288 3 250 3 c 0
 212 3 141 3 107 0 c 1
 107 47 l 1
 107 47 l 1
 203 47 l 1
 203 628 l 1
 203 628 l 1
 161 628 l 2
 70 628 64 546 58 434 c 1
 26 434 l 1
EndSplineSet
EndChar
StartChar: U
Encoding: 85 85 53
Width: 500
Flags: MW
LayerCount: 2
Fore
SplineSet
22 639 m 1
 22 686 l 1
 45 683 103 683 129 683 c 0
 155 683 214 683 237 686 c 1
 237 639 l 1
 237 639 l 1
 176 639 l 1
 176 210 l 2
 176 165 175 36 265 36 c 0
 318 36 382 79 382 230 c 2
 382 610 l 2
 382 632 381 633 365 636 c 0
 360 637 348 639 334 639 c 2
 321 639 l 1
 321 686 l 1
 344 685 375 683 399 683 c 0
 422 683 453 685 477 686 c 1
 477 639 l 1
 464 639 l 2
 459 639 446 639 432 636 c 0
 416 633 416 632 416 610 c 2
 416 227 l 2
 416 212 415 198 414 184 c 0
 403 73 352 -11 263 -11 c 0
 150 -11 83 93 83 229 c 2
 83 639 l 1
 22 639 l 1
 22 639 l 1
EndSplineSet
EndChar
StartChar: V
Encoding: 86 86 54
Width: 500
Flags: MW
LayerCount: 2
Fore
SplineSet
15 639 m 1
 15 686 l 1
 39 683 86 683 112 683 c 0
 138 683 195 683 219 686 c 1
 219 639 l 1
 165 639 l 1
 165 639 l 1
 279 184 l 1
 391 629 l 1
 391 629 l 1
 374 639 352 639 340 639 c 1
 340 686 l 1
 359 685 393 683 418 683 c 0
 442 683 470 685 485 686 c 1
 485 639 l 1
 485 639 l 1
 432 639 432 633 427 616 c 2
 275 17 l 2
 270 0 269 -8 250 -8 c 0
 232 -8 229 0 225 17 c 2
 68 639 l 1
 15 639 l 1
EndSplineSet
EndChar
StartChar: W
Encoding: 87 87 55
Width: 500
Flags: MW
LayerCount: 2
Fore
SplineSet
12 639 m 1
 12 686 l 1
 40 683 53 683 80 683 c 0
 102 683 136 683 157 686 c 1
 157 639 l 1
 126 639 l 1
 194 241 l 1
 234 488 l 1
 207 639 l 1
 176 639 l 1
 176 686 l 1
 204 683 222 683 249 683 c 0
 271 683 305 683 326 686 c 1
 326 639 l 1
 295 639 l 1
 364 241 l 1
 424 628 l 1
 407 639 400 639 381 639 c 1
 381 686 l 1
 389 686 462 683 444 683 c 0
 438 683 467 682 493 686 c 1
 493 639 l 1
 474 639 469 637 470 637 c 0
 456 634 454 621 453 618 c 2
 354 16 l 2
 352 0 346 -8 335 -8 c 0
 321 -8 318 0 315 18 c 2
 250 400 l 1
 185 16 l 2
 180 -18 163 -8 165 -8 c 0
 153 -8 149 0 146 16 c 2
 38 639 l 1
 12 639 l 1
EndSplineSet
EndChar
StartChar: X
Encoding: 88 88 56
Width: 500
Flags: MW
LayerCount: 2
Fore
SplineSet
19 0 m 1
 19 47 l 1
 35 47 l 2
 37 47 50 47 64 49 c 0
 75 50 86 53 93 57 c 1
 209 329 l 1
 84 639 l 1
 28 639 l 1
 28 639 l 1
 28 686 l 1
 52 683 100 683 126 683 c 0
 153 683 210 683 234 686 c 1
 234 639 l 1
 186 639 l 1
 186 639 l 1
 262 451 l 1
 332 616 l 1
 336 628 l 1
 315 639 291 639 281 639 c 1
 281 686 l 1
 305 683 347 683 372 683 c 0
 397 683 427 685 453 686 c 1
 453 639 l 1
 437 639 l 2
 419 639 417 639 401 636 c 0
 381 633 381 632 374 617 c 2
 282 401 l 1
 425 47 l 1
 481 47 l 1
 481 47 l 1
 481 0 l 1
 456 3 409 3 383 3 c 0
 356 3 299 3 275 0 c 1
 275 47 l 1
 323 47 l 1
 323 47 l 1
 230 279 l 1
 138 64 l 1
 136 58 l 1
 156 47 179 47 191 47 c 1
 191 0 l 1
 166 3 126 3 100 3 c 0
 75 3 45 1 19 0 c 1
EndSplineSet
EndChar
StartChar: Y
Encoding: 89 89 57
Width: 500
Flags: MW
LayerCount: 2
Fore
SplineSet
11 639 m 1
 11 686 l 1
 35 683 84 683 110 683 c 0
 137 683 197 683 221 686 c 1
 221 639 l 1
 171 639 l 1
 171 639 l 1
 281 346 l 1
 387 625 l 1
 389 629 l 1
 373 639 358 639 343 639 c 1
 343 686 l 1
 366 684 409 683 422 683 c 0
 446 683 474 685 489 686 c 1
 489 639 l 1
 483 639 478 639 473 639 c 0
 461 639 452 637 446 636 c 0
 431 633 428 627 425 618 c 2
 295 274 l 1
 295 47 l 1
 358 47 l 1
 358 47 l 1
 358 0 l 1
 335 3 276 3 250 3 c 0
 224 3 165 3 142 0 c 1
 142 47 l 1
 142 47 l 1
 205 47 l 1
 205 274 l 1
 67 639 l 1
 11 639 l 1
 11 639 l 1
EndSplineSet
EndChar
StartChar: Z
Encoding: 90 90 58
Width: 500
Flags: MW
LayerCount: 2
Fore
SplineSet
46 26 m 0
 46 37 45 40 51 52 c 2
 337 639 l 1
 244 639 l 2
 144 639 97 578 91 445 c 1
 57 445 l 1
 66 686 l 1
 432 686 l 2
 447 686 455 686 455 661 c 0
 455 650 455 649 449 637 c 2
 165 51 l 1
 265 51 l 2
 411 51 421 173 427 284 c 1
 460 284 l 1
 447 0 l 1
 68 0 l 2
 52 0 46 0 46 26 c 0
EndSplineSet
EndChar
StartChar: bracketleft
Encoding: 91 91 59
Width: 500
Flags: MW
LayerCount: 2
Fore
SplineSet
218 -250 m 1
 218 750 l 1
 382 750 l 1
 382 714 l 1
 312 714 l 1
 312 -214 l 1
 382 -214 l 1
 382 -250 l 1
 218 -250 l 1
EndSplineSet
EndChar
StartChar: backslash
Encoding: 92 92 130
Width: 500
Flags: MW
LayerCount: 2
Fore
SplineSet
56 731 m 4
 56 740 62 748 70 748 c 0
 82 748 89 730 92 721 c 2
 434 -197 l 2
 441 -217 444 -224 444 -231 c 0
 444 -240 436 -249 428 -249 c 0
 415 -249 411 -230 408 -221 c 2
 64 706 l 2
 61 714 56 722 56 731 c 4
EndSplineSet
EndChar
StartChar: bracketright
Encoding: 93 93 61
Width: 500
Flags: MW
LayerCount: 2
Fore
SplineSet
118 -214 m 1
 187 -214 l 1
 187 714 l 1
 118 714 l 1
 118 750 l 1
 282 750 l 1
 282 -250 l 1
 118 -250 l 1
 118 -214 l 1
EndSplineSet
EndChar
StartChar: asciicircum
Encoding: 94 94 62
Width: 500
Flags: MW
LayerCount: 2
Fore
SplineSet
60 502 m 1
 250 632 l 1
 440 502 l 1
 420 460 l 1
 250 550 l 1
 78 460 l 1
 60 502 l 1
EndSplineSet
EndChar
StartChar: underscore
Encoding: 95 95 63
Width: 500
Flags: MW
LayerCount: 2
Fore
SplineSet
54 -278 m 0
 54 -266 58 -247 79 -247 c 2
 422 -247 l 1
 443 -248 445 -269 445 -278 c 0
 445 -289 442 -308 420 -308 c 2
 80 -308 l 2
 72 -308 54 -306 54 -278 c 0
EndSplineSet
EndChar
StartChar: grave
Encoding: 96 96 64
Width: 500
Flags: MW
LayerCount: 2
Fore
SplineSet
155 599 m 0
 155 630 177 662 206 662 c 0
 229 662 233 652 311 570 c 0
 322 558 334 547 345 534 c 1
 324 494 l 1
 177 552 155 553 155 599 c 0
EndSplineSet
EndChar
StartChar: b
Encoding: 98 98 66
Width: 500
Flags: MW
LayerCount: 2
Fore
SplineSet
14 639 m 5
 14 686 l 1
 148 694 l 1
 148 401 l 1
 169 421 192 450 256 450 c 0
 382 450 466 356 466 223 c 0
 466 84 376 -6 246 -6 c 0
 168 -6 145 48 138 56 c 1
 96 0 l 1
 54 0 l 1
 54 600 l 2
 54 639 43 639 14 639 c 5
154 99 m 1
 154 99 l 1
 163 84 177 30 238 30 c 0
 266 30 307 41 332 82 c 1
 355 121 354 176 354 223 c 0
 354 263 354 320 334 361 c 0
 319 392 293 414 248 414 c 0
 200 414 178 385 154 350 c 1
 154 350 l 1
 154 99 l 1
EndSplineSet
EndChar
StartChar: c
Encoding: 99 99 67
Width: 500
Flags: MW
LayerCount: 2
Fore
SplineSet
58 222 m 0
 58 338 122 453 278 453 c 0
 329 453 430 447 430 361 c 0
 430 319 403 298 376 298 c 0
 352 298 322 317 322 361 c 0
 322 370 324 391 340 407 c 1
 329 410 312 413 282 413 c 0
 170 413 170 283 170 227 c 0
 170 181 171 34 292 34 c 0
 336 34 377 53 400 116 c 0
 404 129 404 131 420 131 c 0
 429 131 442 131 442 117 c 0
 442 110 415 -6 274 -6 c 0
 140 -6 58 89 58 222 c 0
EndSplineSet
EndChar
StartChar: d
Encoding: 100 100 68
Width: 500
Flags: MW
LayerCount: 2
Fore
SplineSet
43 221 m 0
 43 362 135 450 262 450 c 0
 291 450 315 444 359 405 c 1
 359 600 l 2
 359 639 349 639 319 639 c 1
 319 686 l 1
 453 694 l 1
 453 86 l 2
 453 47 465 47 494 47 c 1
 494 0 l 1
 354 -6 l 1
 354 43 l 1
 327 18 305 -6 252 -6 c 0
 123 -6 43 89 43 221 c 0
155 221 m 0
 155 180 155 122 176 80 c 0
 192 51 217 30 261 30 c 0
 327 30 343 85 354 103 c 1
 354 103 l 1
 354 353 l 1
 354 353 l 1
 335 382 320 414 270 414 c 0
 243 414 202 404 177 362 c 0
 154 323 155 269 155 221 c 0
EndSplineSet
EndChar
StartChar: e
Encoding: 101 101 69
Width: 500
Flags: MW
LayerCount: 2
Fore
SplineSet
49 225 m 0
 49 350 125 453 264 453 c 0
 324 453 371 435 403 399 c 0
 447 349 451 276 451 245 c 0
 451 218 442 218 423 218 c 2
 160 218 l 1
 160 186 160 123 190 80 c 4
 208 53 237 34 284 34 c 0
 341 34 391 66 409 114 c 0
 414 130 415 135 430 135 c 0
 434 135 451 135 451 117 c 0
 451 100 414 -6 276 -6 c 0
 136 -6 49 91 49 225 c 0
160 251 m 1
 369 251 l 1
 368 286 366 417 264 417 c 0
 239 417 204 405 181 365 c 0
 163 332 162 290 160 251 c 1
EndSplineSet
EndChar
StartChar: f
Encoding: 102 102 70
Width: 500
Flags: MW
LayerCount: 2
Fore
SplineSet
98 397 m 1
 98 444 l 1
 163 444 l 1
 163 545 l 2
 163 658 257 700 342 700 c 0
 410 700 442 655 442 613 c 0
 442 572 414 551 388 551 c 0
 365 551 335 570 335 613 c 0
 335 632 342 651 355 662 c 1
 349 664 344 664 340 664 c 0
 318 664 252 655 252 545 c 2
 252 444 l 1
 357 444 l 1
 357 397 l 1
 257 397 l 1
 257 47 l 1
 333 47 l 1
 333 47 l 1
 333 0 l 1
 302 3 246 3 213 3 c 0
 173 3 133 1 103 0 c 1
 103 47 l 1
 163 47 l 1
 163 397 l 1
 98 397 l 1
EndSplineSet
EndChar
StartChar: g
Encoding: 103 103 71
Width: 500
Flags: MW
LayerCount: 2
Fore
SplineSet
28 -75 m 0
 28 -12 92 9 103 12 c 1
 68 44 64 93 64 108 c 0
 64 129 70 162 94 197 c 1
 66 220 49 261 49 302 c 0
 49 372 97 450 222 450 c 0
 286 450 323 429 339 417 c 1
 377 452 418 455 431 455 c 0
 471 455 486 420 486 397 c 0
 486 373 472 354 449 354 c 0
 426 354 411 372 411 397 c 0
 411 403 413 412 415 417 c 1
 413 417 411 416 408 416 c 4
 398 415 382 411 361 398 c 1
 374 382 395 349 395 302 c 0
 395 232 347 154 222 154 c 0
 200 154 156 156 116 180 c 1
 111 172 107 157 107 147 c 0
 107 129 117 91 155 84 c 0
 159 83 199 83 222 83 c 0
 306 83 358 83 407 55 c 0
 465 21 472 -42 472 -72 c 0
 472 -142 404 -201 250 -201 c 0
 76 -201 28 -126 28 -75 c 0
103 -73 m 0
 103 -119 145 -165 250 -165 c 0
 363 -165 397 -111 397 -75 c 0
 397 -13 299 -13 272 -13 c 2
 170 -13 l 2
 158 -13 103 -13 103 -73 c 0
145 302 m 0
 145 257 145 190 222 190 c 0
 257 190 277 204 287 223 c 0
 299 246 299 278 299 302 c 0
 299 347 299 414 222 414 c 0
 192 414 174 404 163 389 c 0
 146 366 145 329 145 302 c 0
EndSplineSet
EndChar
StartChar: h
Encoding: 104 104 72
Width: 500
Flags: MW
LayerCount: 2
Fore
SplineSet
12 0 m 1
 12 47 l 1
 72 47 l 1
 72 600 l 2
 72 639 66 639 12 639 c 1
 12 686 l 1
 166 694 l 1
 166 354 l 1
 166 354 l 1
 185 392 210 450 294 450 c 0
 340 450 375 439 398 413 c 0
 418 390 428 355 428 306 c 2
 428 47 l 1
 488 47 l 1
 488 0 l 1
 464 1 412 3 378 3 c 0
 345 3 292 1 268 0 c 1
 268 47 l 1
 328 47 l 1
 328 317 l 2
 328 393 310 414 280 414 c 0
 225 414 172 365 172 256 c 2
 172 47 l 1
 232 47 l 1
 232 0 l 1
 208 1 156 3 122 3 c 0
 89 3 36 1 12 0 c 1
EndSplineSet
EndChar
StartChar: i
Encoding: 105 105 73
Width: 500
Flags: MW
LayerCount: 2
Fore
SplineSet
146 0 m 1
 146 47 l 1
 206 47 l 1
 206 47 l 1
 206 356 l 2
 206 395 200 395 149 395 c 1
 149 442 l 1
 300 450 l 1
 300 47 l 5
 300 47 l 1
 354 47 l 1
 354 0 l 1
 323 1 278 3 252 3 c 0
 215 3 173 1 146 0 c 1
173 617 m 0
 173 660 204 695 241 695 c 0
 278 695 309 661 309 617 c 0
 309 573 278 539 241 539 c 0
 204 539 173 574 173 617 c 0
EndSplineSet
EndChar
StartChar: j
Encoding: 106 106 74
Width: 500
Flags: MW
LayerCount: 2
Fore
SplineSet
59 -109 m 0
 59 -73 81 -46 114 -46 c 0
 145 -46 168 -73 168 -108 c 0
 168 -123 164 -144 147 -158 c 1
 160 -162 167 -164 181 -164 c 0
 233 -164 247 -92 247 -42 c 2
 247 355 l 2
 247 376 246 389 227 393 c 0
 214 395 195 395 180 395 c 1
 180 442 l 1
 341 450 l 1
 341 -42 l 2
 341 -148 258 -200 183 -200 c 0
 112 -200 59 -166 59 -109 c 0
205 617 m 0
 205 660 236 695 273 695 c 0
 310 695 341 660 341 617 c 0
 341 574 310 539 273 539 c 0
 236 539 205 574 205 617 c 0
EndSplineSet
EndChar
StartChar: k
Encoding: 107 107 75
Width: 500
Flags: MW
LayerCount: 2
Fore
SplineSet
10 0 m 1
 10 47 l 1
 70 47 l 1
 70 600 l 2
 70 639 64 639 10 639 c 1
 10 686 l 1
 164 694 l 1
 164 237 l 1
 330 386 l 5
 330 386 l 1
 323 394 320 397 300 397 c 1
 300 444 l 1
 320 443 376 441 400 441 c 0
 423 441 444 441 468 444 c 1
 468 397 l 1
 410 397 402 390 390 379 c 2
 276 278 l 1
 276 278 l 1
 424 67 l 2
 435 51 439 47 476 47 c 2
 490 47 l 1
 490 0 l 1
 460 2 431 3 400 3 c 0
 396 3 318 2 292 0 c 1
 292 47 l 1
 303 47 320 47 320 56 c 0
 320 59 306 79 298 91 c 2
 210 217 l 1
 193 203 185 197 160 174 c 1
 160 47 l 1
 220 47 l 1
 220 0 l 1
 189 1 148 3 116 3 c 0
 85 3 42 1 10 0 c 1
EndSplineSet
EndChar
StartChar: l
Encoding: 108 108 76
Width: 500
Flags: MW
LayerCount: 2
Fore
SplineSet
143 0 m 1
 143 47 l 1
 203 47 l 1
 203 600 l 2
 203 639 197 639 143 639 c 1
 143 686 l 1
 297 694 l 1
 297 47 l 1
 357 47 l 1
 357 0 l 1
 327 1 287 3 250 3 c 0
 213 3 171 1 143 0 c 1
EndSplineSet
EndChar
StartChar: m
Encoding: 109 109 77
Width: 500
Flags: MW
LayerCount: 2
Fore
SplineSet
4 0 m 1
 4 48 l 1
 34 48 l 1
 34 378 l 2
 34 411 32 407 4 407 c 1
 4 449 l 1
 111 455 l 1
 111 345 l 1
 127 409 158 455 204 455 c 0
 220 455 278 457 290 360 c 1
 305 411 325 455 371 455 c 0
 395 455 431 451 447 421 c 0
 457 406 466 367 466 338 c 2
 466 48 l 1
 496 48 l 1
 496 0 l 1
 484 1 446 3 423 3 c 0
 401 3 364 1 352 0 c 1
 352 48 l 1
 383 48 l 1
 383 337 l 2
 383 426 368 425 360 425 c 0
 330 425 292 381 292 269 c 2
 292 48 l 1
 323 48 l 1
 323 0 l 1
 311 1 273 3 250 3 c 0
 228 3 190 1 178 0 c 1
 178 48 l 1
 209 48 l 1
 209 337 l 2
 209 426 202 425 194 425 c 0
 164 425 118 381 118 269 c 2
 118 48 l 1
 149 48 l 1
 149 0 l 1
 137 1 99 3 76 3 c 0
 54 3 16 1 4 0 c 1
EndSplineSet
EndChar
StartChar: n
Encoding: 110 110 78
Width: 500
Flags: MW
LayerCount: 2
Fore
SplineSet
12 0 m 1
 12 47 l 1
 72 47 l 1
 72 47 l 1
 72 356 l 2
 72 395 66 395 12 395 c 1
 12 442 l 1
 162 450 l 1
 162 342 l 1
 185 393 210 450 294 450 c 0
 339 450 373 439 396 414 c 0
 417 391 428 356 428 306 c 2
 428 47 l 5
 428 47 l 1
 488 47 l 1
 488 0 l 1
 464 1 412 3 378 3 c 0
 345 3 292 1 268 0 c 1
 268 47 l 1
 328 47 l 1
 328 47 l 1
 328 317 l 2
 328 393 310 414 280 414 c 0
 225 414 172 365 172 256 c 2
 172 47 l 1
 172 47 l 1
 232 47 l 1
 232 0 l 1
 208 1 156 3 122 3 c 0
 89 3 36 1 12 0 c 1
EndSplineSet
EndChar
StartChar: o
Encoding: 111 111 79
Width: 500
Flags: MW
LayerCount: 2
Fore
SplineSet
28 218 m 0
 28 351 107 453 250 453 c 0
 392 453 472 352 472 218 c 0
 472 95 396 -6 250 -6 c 0
 105 -6 28 94 28 218 c 0
139 229 m 0
 139 184 139 133 155 94 c 0
 170 59 197 34 250 34 c 0
 298 34 325 54 341 84 c 4
 361 124 361 180 361 229 c 0
 361 277 360 332 342 366 c 0
 323 401 287 417 250 417 c 0
 207 417 171 396 154 359 c 0
 139 325 139 274 139 229 c 0
EndSplineSet
EndChar
StartChar: p
Encoding: 112 112 80
Width: 500
Flags: MW
LayerCount: 2
Fore
SplineSet
4 -147 m 1
 64 -147 l 1
 64 -147 l 1
 64 357 l 2
 64 395 58 395 4 395 c 1
 4 442 l 1
 158 450 l 1
 158 401 l 1
 178 419 205 450 270 450 c 0
 395 450 476 356 476 223 c 0
 476 84 387 -6 256 -6 c 0
 220 -6 201 4 164 39 c 1
 164 39 l 1
 164 -147 l 1
 164 -147 l 1
 224 -147 l 1
 224 -194 l 1
 200 -193 148 -191 114 -191 c 0
 81 -191 28 -193 4 -194 c 1
 4 -147 l 1
164 117 m 2
 164 98 164 97 174 84 c 0
 213 30 234 30 246 30 c 0
 303 30 364 82 364 223 c 0
 364 349 314 410 256 410 c 0
 237 410 213 404 178 363 c 0
 166 349 164 348 164 329 c 2
 164 117 l 2
EndSplineSet
EndChar
StartChar: q
Encoding: 113 113 81
Width: 500
Flags: MW
LayerCount: 2
Fore
SplineSet
23 222 m 0
 23 361 113 450 240 450 c 0
 292 450 322 420 352 371 c 1
 398 450 l 1
 433 450 l 1
 433 -147 l 5
 433 -147 l 1
 494 -147 l 1
 494 -194 l 1
 470 -193 418 -191 384 -191 c 0
 351 -191 298 -193 274 -194 c 1
 274 -147 l 1
 334 -147 l 1
 334 -147 l 1
 334 48 l 1
 294 8 275 -6 232 -6 c 0
 111 -6 23 81 23 222 c 0
135 221 m 0
 135 88 187 30 241 30 c 0
 267 30 291 41 326 100 c 0
 339 121 339 124 339 142 c 2
 339 281 l 2
 339 331 317 410 251 410 c 0
 199 410 135 363 135 221 c 0
EndSplineSet
EndChar
StartChar: r
Encoding: 114 114 82
Width: 500
Flags: MW
LayerCount: 2
Fore
SplineSet
74 0 m 1
 74 47 l 1
 134 47 l 1
 134 47 l 1
 134 356 l 2
 134 395 128 395 74 395 c 1
 74 442 l 1
 218 450 l 1
 218 337 l 1
 238 400 273 450 334 450 c 0
 379 450 426 421 426 368 c 0
 426 328 399 307 374 307 c 0
 349 307 320 327 320 368 c 0
 320 397 335 413 336 414 c 1
 334 414 334 414 332 414 c 0
 249 409 228 290 228 222 c 2
 228 47 l 1
 228 47 l 1
 304 47 l 1
 304 47 l 1
 304 0 l 1
 273 3 217 3 184 3 c 0
 144 3 104 1 74 0 c 1
EndSplineSet
EndChar
StartChar: s
Encoding: 115 115 83
Width: 500
Flags: MW
LayerCount: 2
Fore
SplineSet
86 22 m 2
 86 131 l 2
 86 154 85 160 106 160 c 0
 118 160 124 160 128 146 c 1
 138 103 160 30 252 30 c 0
 271 30 352 30 352 105 c 0
 352 164 287 177 256 183 c 0
 189 197 155 203 120 238 c 0
 103 255 86 282 86 322 c 0
 86 453 220 453 246 453 c 0
 281 453 311 447 334 434 c 1
 343 439 349 443 354 445 c 4
 369 453 371 453 374 453 c 0
 390 453 388 444 388 425 c 2
 388 345 l 2
 388 322 389 317 368 317 c 0
 350 317 349 322 348 337 c 0
 344 392 311 421 246 421 c 0
 229 421 148 421 148 359 c 0
 148 312 204 301 236 294 c 0
 304 281 332 275 366 246 c 1
 396 218 414 183 414 140 c 0
 414 -6 279 -6 252 -6 c 0
 235 -6 190 -6 150 26 c 1
 147 24 129 9 128 9 c 0
 110 -6 108 -6 102 -6 c 0
 86 -6 86 3 86 22 c 2
EndSplineSet
EndChar
StartChar: t
Encoding: 116 116 84
Width: 500
Flags: MW
LayerCount: 2
Fore
SplineSet
92 397 m 1
 92 433 l 1
 178 436 221 535 222 635 c 1
 264 635 l 1
 264 444 l 1
 390 444 l 1
 390 397 l 1
 264 397 l 1
 264 121 l 2
 264 98 263 34 314 34 c 0
 338 34 366 58 366 126 c 2
 366 177 l 1
 408 177 l 1
 408 124 l 2
 408 51 368 -6 302 -6 c 0
 240 -6 164 16 164 123 c 2
 164 397 l 1
 92 397 l 1
EndSplineSet
EndChar
StartChar: u
Encoding: 117 117 85
Width: 500
Flags: MW
LayerCount: 2
Fore
SplineSet
12 395 m 1
 12 442 l 1
 172 450 l 1
 172 109 l 2
 172 55 173 30 240 30 c 0
 304 30 328 83 328 165 c 2
 328 356 l 2
 328 395 322 395 268 395 c 1
 268 442 l 1
 428 450 l 1
 428 86 l 2
 428 47 434 47 488 47 c 1
 488 0 l 1
 334 -6 l 1
 334 72 l 1
 294 -6 251 -6 228 -6 c 0
 142 -6 72 16 72 123 c 2
 72 356 l 2
 72 395 66 395 12 395 c 1
EndSplineSet
EndChar
StartChar: v
Encoding: 118 118 86
Width: 500
Flags: MW
LayerCount: 2
Fore
SplineSet
9 397 m 1
 9 444 l 1
 45 443 84 441 108 441 c 0
 109 441 187 442 216 444 c 1
 216 397 l 1
 169 397 l 1
 169 397 l 5
 280 124 l 1
 381 374 l 2
 385 384 385 385 385 386 c 0
 385 394 360 397 343 397 c 1
 343 444 l 1
 361 443 400 441 422 441 c 0
 444 441 469 442 491 444 c 1
 491 397 l 1
 435 397 432 390 427 376 c 2
 282 20 l 2
 273 -1 265 -4 250 -4 c 0
 239 -4 227 -4 217 21 c 2
 64 397 l 1
 9 397 l 1
EndSplineSet
EndChar
StartChar: w
Encoding: 119 119 87
Width: 500
Flags: MW
LayerCount: 2
Fore
SplineSet
6 396 m 1
 6 442 l 1
 24 442 52 439 78 439 c 0
 107 439 129 439 156 442 c 1
 156 396 l 1
 126 396 l 1
 124 396 l 1
 186 170 l 1
 228 322 l 1
 229 327 232 336 232 342 c 1
 234 332 221 396 221 396 c 25
 189 396 l 1
 189 442 l 1
 193 442 227 439 254 439 c 0
 273 439 307 441 326 442 c 1
 326 396 l 9
 296 396 l 25
 294 396 l 17
 363 142 l 1
 427 396 l 9
 427 396 l 1
 396 396 l 1
 396 442 l 1
 409 441 436 439 451 439 c 0
 465 439 482 440 495 442 c 1
 495 396 l 1
 462 396 l 1
 373 32 l 2
 367 11 365 0 347 0 c 0
 329 0 327 12 321 32 c 2
 251 266 l 1
 190 31 l 2
 185 13 182 0 164 0 c 0
 146 0 144 12 139 30 c 2
 34 396 l 1
 6 396 l 1
EndSplineSet
EndChar
StartChar: x
Encoding: 120 120 88
Width: 500
Flags: MW
LayerCount: 2
Fore
SplineSet
4 0 m 1
 4 47 l 1
 46 47 77 47 92 66 c 2
 206 213 l 1
 70 397 l 1
 10 397 l 1
 10 444 l 1
 39 443 76 441 104 441 c 0
 132 441 187 443 210 444 c 1
 210 397 l 1
 176 397 l 1
 176 397 l 1
 260 282 l 1
 334 376 l 2
 337 380 337 382 340 388 c 1
 330 395 320 397 308 397 c 1
 308 444 l 1
 332 443 376 441 398 441 c 0
 402 441 448 442 478 444 c 1
 478 397 l 1
 406 397 399 390 388 376 c 2
 286 246 l 1
 434 47 l 1
 496 47 l 1
 496 0 l 1
 467 1 428 3 400 3 c 0
 371 3 317 1 294 0 c 1
 294 47 l 1
 328 47 l 1
 328 47 l 1
 232 177 l 1
 148 68 l 2
 142 60 142 59 142 58 c 0
 142 52 158 47 174 47 c 1
 174 0 l 1
 157 1 106 3 84 3 c 0
 80 3 34 2 4 0 c 1
EndSplineSet
EndChar
StartChar: y
Encoding: 121 121 89
Width: 500
Flags: MW
LayerCount: 2
Fore
SplineSet
7 -108 m 0
 7 -69 33 -50 57 -50 c 0
 87 -50 107 -74 107 -107 c 0
 107 -142 87 -156 79 -160 c 1
 86 -163 88 -164 100 -164 c 0
 162 -164 190 -96 209 -48 c 2
 229 0 l 1
 66 397 l 1
 11 397 l 1
 11 444 l 1
 47 443 86 441 110 441 c 0
 111 441 189 442 218 444 c 1
 218 397 l 1
 171 397 l 1
 171 397 l 1
 282 127 l 1
 382 373 l 2
 383 374 386 384 386 385 c 0
 386 397 347 397 345 397 c 1
 345 444 l 1
 363 443 402 441 424 441 c 0
 446 441 472 442 493 444 c 1
 493 397 l 1
 437 397 435 390 429 376 c 2
 241 -81 l 2
 217 -138 167 -200 100 -200 c 0
 48 -200 7 -159 7 -108 c 0
EndSplineSet
EndChar
StartChar: z
Encoding: 122 122 90
Width: 500
Flags: MW
LayerCount: 2
Fore
SplineSet
63 22 m 0
 63 31 63 33 71 44 c 2
 314 408 l 1
 240 408 l 2
 150 408 123 372 118 269 c 1
 77 269 l 1
 87 444 l 1
 407 444 l 2
 423 444 435 444 435 423 c 0
 435 414 433 412 426 401 c 2
 185 40 l 1
 260 40 l 2
 375 40 389 101 397 202 c 1
 437 202 l 1
 422 0 l 1
 91 0 l 2
 74 0 63 0 63 22 c 0
EndSplineSet
EndChar
StartChar: braceleft
Encoding: 123 123 91
Width: 500
Flags: MW
LayerCount: 2
Fore
SplineSet
68 250 m 0
 68 274 91 265 123 275 c 0
 173 292 191 325 197 351 c 4
 200 363 200 373 200 379 c 2
 200 603 l 2
 200 631 198 691 275 726 c 0
 297 736 341 750 408 750 c 0
 419 750 431 749 431 732 c 0
 431 706 408 718 370 705 c 0
 304 682 300 631 300 608 c 2
 300 378 l 2
 300 351 294 280 194 250 c 1
 299 219 300 145 300 115 c 2
 300 -100 l 2
 300 -113 300 -126 303 -139 c 0
 313 -174 344 -198 381 -208 c 0
 408 -216 432 -208 432 -232 c 0
 432 -250 417 -250 411 -250 c 2
 407 -250 l 2
 328 -250 219 -230 202 -138 c 0
 200 -127 200 -115 200 -103 c 2
 200 112 l 2
 200 136 198 153 188 172 c 0
 168 207 133 226 98 230 c 0
 83 232 68 231 68 250 c 0
EndSplineSet
EndChar
StartChar: bar
Encoding: 124 124 92
Width: 500
Flags: MW
LayerCount: 2
Fore
SplineSet
220 -209 m 2
 220 705 l 2
 220 715 218 749 250 749 c 0
 262 749 280 743 280 710 c 2
 280 -205 l 2
 280 -223 279 -249 250 -249 c 0
 219 -249 220 -216 220 -209 c 2
EndSplineSet
EndChar
StartChar: braceright
Encoding: 125 125 93
Width: 500
Flags: MW
LayerCount: 2
Fore
SplineSet
68 -231 m 0
 68 -208 92 -216 119 -208 c 0
 152 -199 187 -176 197 -139 c 0
 200 -126 200 -113 200 -100 c 2
 200 115 l 2
 200 151 204 220 305 250 c 1
 197 281 200 362 200 385 c 2
 200 600 l 2
 200 612 201 624 198 636 c 0
 188 677 146 708 91 713 c 0
 82 714 68 713 68 731 c 0
 68 750 82 750 92 750 c 0
 95 750 98 750 101 750 c 4
 175 749 280 728 297 640 c 0
 300 628 300 615 300 603 c 2
 300 386 l 2
 300 293 373 273 403 269 c 0
 414 268 432 271 432 250 c 0
 432 230 413 232 402 230 c 0
 358 225 310 196 301 142 c 0
 299 132 300 122 300 112 c 2
 300 -103 l 2
 300 -139 296 -200 211 -232 c 0
 173 -246 124 -250 92 -250 c 2
 89 -250 l 2
 78 -250 68 -247 68 -231 c 0
EndSplineSet
EndChar
StartChar: asciitilde
Encoding: 126 126 126
Width: 500
Flags: MW
LayerCount: 2
Fore
SplineSet
36 611 m 1
 78 665 91 694 155 694 c 0
 222 694 294 660 361 660 c 0
 410 660 427 679 442 694 c 1
 464 669 l 1
 424 617 409 586 345 586 c 0
 278 586 206 620 139 620 c 0
 91 620 73 601 58 586 c 1
 36 611 l 1
EndSplineSet
EndChar
StartChar: exclamdown
Encoding: 161 161 108
Width: 500
Flags: MW
LayerCount: 2
Fore
SplineSet
184 -134 m 0
 184 -123 186 -112 188 -102 c 2
 228 241 l 2
 230 258 229 274 250 274 c 0
 273 274 270 257 273 235 c 2
 314 -116 l 2
 315 -122 316 -128 316 -134 c 0
 316 -177 283 -205 250 -205 c 0
 219 -205 184 -179 184 -134 c 0
185 422 m 0
 185 461 212 500 250 500 c 0
 288 500 315 463 315 422 c 0
 315 383 288 344 250 344 c 0
 212 344 185 381 185 422 c 0
EndSplineSet
EndChar
StartChar: cent
Encoding: 162 162 104
Width: 500
Flags: MW
LayerCount: 2
Fore
SplineSet
32 223 m 0
 32 314 76 437 247 452 c 1
 247 545 l 1
 287 545 l 1
 287 453 l 1
 349 452 444 448 444 362 c 0
 444 324 419 299 391 299 c 0
 363 299 339 324 339 361 c 0
 339 385 346 396 354 407 c 1
 332 411 310 412 287 412 c 1
 287 35 l 1
 357 38 388 69 405 100 c 0
 418 123 416 131 434 131 c 0
 443 131 453 129 453 117 c 0
 452 94 421 7 287 -5 c 1
 287 -97 l 1
 247 -97 l 1
 247 -5 l 1
 77 10 32 132 32 223 c 0
139 223 m 0
 139 175 144 65 247 40 c 1
 247 411 l 1
 168 395 139 337 139 223 c 0
EndSplineSet
EndChar
StartChar: sterling
Encoding: 163 163 105
Width: 500
Flags: MW
LayerCount: 2
Fore
SplineSet
23 51 m 0
 23 101 47 136 112 139 c 0
 115 139 118 139 121 139 c 0
 137 139 153 137 169 134 c 1
 170 212 l 1
 170 323 l 1
 119 323 l 2
 111 323 104 324 101 331 c 0
 99 335 98 340 98 347 c 0
 98 354 99 359 101 362 c 0
 104 370 111 371 119 371 c 2
 170 371 l 1
 170 483 l 2
 170 492 169 501 169 510 c 0
 169 665 253 704 329 704 c 0
 426 704 450 613 450 524 c 0
 450 471 416 458 398 458 c 0
 371 458 346 483 346 520 c 0
 346 539 352 573 388 581 c 0
 391 582 395 583 399 583 c 1
 391 624 359 667 330 667 c 0
 294 667 288 656 275 626 c 0
 265 602 265 559 265 526 c 2
 265 371 l 1
 340 371 l 2
 353 371 362 369 362 347 c 0
 362 326 353 323 340 323 c 2
 265 323 l 1
 265 185 l 2
 265 154 263 137 254 108 c 1
 277 99 317 66 372 66 c 0
 411 66 429 86 437 130 c 0
 440 145 442 153 456 153 c 0
 462 153 467 152 470 150 c 0
 475 147 477 141 477 132 c 0
 477 77 450 -5 351 -5 c 0
 277 -5 230 40 217 40 c 0
 203 40 174 -5 85 -5 c 0
 62 -5 23 4 23 51 c 0
77 49 m 0
 77 42 78 31 86 31 c 0
 111 31 130 41 148 62 c 1
 132 65 117 67 101 67 c 2
 100 67 l 2
 78 67 77 64 77 49 c 0
EndSplineSet
EndChar
StartChar: yen
Encoding: 165 165 60
Width: 500
Flags: MW
LayerCount: 2
Fore
SplineSet
10 638 m 1
 10 686 l 1
 44 684 77 683 111 683 c 0
 147 683 184 684 220 686 c 1
 220 638 l 1
 220 638 l 1
 171 638 l 1
 238 458 l 1
 324 458 l 1
 324 458 l 1
 345 515 385 614 385 625 c 0
 385 633 376 638 342 638 c 1
 342 686 l 1
 369 684 397 683 423 683 c 0
 436 683 457 683 489 686 c 1
 489 638 l 1
 489 638 l 1
 434 638 431 633 422 610 c 2
 364 458 l 1
 419 458 l 2
 451 458 462 459 462 438 c 0
 462 434 461 430 459 428 c 0
 455 422 446 422 439 422 c 2
 350 422 l 1
 350 422 l 1
 304 291 295 291 295 256 c 2
 295 236 l 1
 444 236 l 2
 451 236 462 235 462 218 c 0
 462 206 456 202 450 201 c 0
 448 200 445 200 443 200 c 2
 295 200 l 1
 295 48 l 1
 357 48 l 1
 357 48 l 1
 357 0 l 1
 320 2 289 3 246 3 c 24
 205 3 198 3 142 0 c 1
 142 48 l 1
 142 48 l 1
 204 48 l 1
 204 200 l 1
 62 200 l 2
 60 200 58 200 56 200 c 4
 48 201 37 205 37 218 c 0
 37 235 48 236 55 236 c 2
 204 236 l 1
 204 256 l 2
 204 292 192 295 148 422 c 1
 148 422 l 1
 60 422 l 2
 45 422 37 431 37 439 c 0
 37 449 41 457 48 458 c 0
 52 458 62 458 69 458 c 2
 134 458 l 1
 66 638 l 1
 10 638 l 1
253 422 m 1
 281 346 l 1
 310 422 l 1
 253 422 l 1
EndSplineSet
EndChar
StartChar: dieresis
Encoding: 168 168 133
Width: 500
Flags: MW
LayerCount: 2
Fore
SplineSet
279 608 m 0
 279 651 309 686 346 686 c 0
 382 686 414 653 414 608 c 0
 414 561 379 530 346 530 c 0
 311 530 279 563 279 608 c 0
84 608 m 0
 84 647 112 686 152 686 c 0
 187 686 219 653 219 608 c 0
 219 565 189 530 152 530 c 0
 116 530 84 563 84 608 c 0
EndSplineSet
EndChar
StartChar: logicalnot
Encoding: 172 172 129
Width: 500
Flags: MW
LayerCount: 2
Fore
SplineSet
64 340 m 0
 64 351 70 370 103 370 c 2
 395 370 l 2
 397 370 399 371 401 371 c 0
 439 371 442 350 442 328 c 2
 442 100 l 2
 442 67 424 61 412 61 c 0
 400 61 382 67 381 100 c 1
 381 310 l 1
 100 310 l 1
 68 311 64 331 64 340 c 0
EndSplineSet
EndChar
StartChar: acute
Encoding: 180 180 132
Width: 500
Flags: MW
LayerCount: 2
Fore
SplineSet
211 535 m 1
 322 653 327 662 350 662 c 0
 380 662 401 627 401 599 c 0
 401 552 363 546 269 509 c 4
 258 505 246 499 233 494 c 1
 211 535 l 1
EndSplineSet
EndChar
StartChar: periodcentered
Encoding: 183 183 136
Width: 500
Flags: MW
LayerCount: 2
Fore
SplineSet
172 236 m 0
 172 283 212 314 250 314 c 0
 291 314 328 281 328 236 c 0
 328 197 296 158 250 158 c 0
 209 158 172 191 172 236 c 0
EndSplineSet
EndChar
StartChar: onehalf
Encoding: 189 189 110
Width: 500
Flags: MW
LayerCount: 2
Fore
SplineSet
84 -195 m 1
 84 -111 l 18
 85 -93 100 -86 108 -82 c 0
 154 -58 182 -54 222 -22 c 24
 258 7 299 32 299 73 c 0
 299 101 284 140 227 151 c 0
 219 153 210 154 200 154 c 1
 203 143 205 136 205 125 c 0
 205 84 178 56 144 56 c 0
 109 56 84 88 84 125 c 0
 84 199 172 199 233 199 c 0
 386 199 416 123 416 73 c 8
 416 -4 317 -33 284 -44 c 1
 265 -50 232 -65 206 -75 c 1
 254 -75 l 2
 319 -75 349 -75 356 -67 c 0
 361 -62 364 -55 366 -48 c 0
 369 -38 371 -20 373 -10 c 9
 412 -10 l 1
 390 -195 l 1
 84 -195 l 1
38 278 m 0
 38 305 63 308 72 308 c 2
 424 308 l 2
 432 308 440 308 448 304 c 0
 456 299 462 288 462 277 c 0
 462 266 456 247 428 247 c 2
 70 247 l 1
 42 248 38 268 38 278 c 0
103 677 m 1
 103 724 l 1
 148 727 200 724 255 750 c 0
 263 755 272 761 284 761 c 0
 302 761 306 751 306 732 c 2
 306 416 l 5
 306 416 l 1
 397 416 l 1
 397 416 l 1
 397 368 l 1
 243 371 l 1
 116 368 l 1
 116 416 l 1
 116 416 l 1
 206 416 l 1
 206 416 l 1
 206 685 l 1
 153 675 139 679 103 677 c 1
EndSplineSet
EndChar
StartChar: questiondown
Encoding: 191 191 109
Width: 500
Flags: MW
LayerCount: 2
Fore
SplineSet
76 -71 m 0
 76 2 121 25 144 49 c 0
 213 120 217 191 217 226 c 2
 217 243 l 1
 217 243 215 274 238 274 c 0
 255 274 257 263 257 247 c 0
 257 244 256 241 256 238 c 2
 256 225 l 2
 256 77 201 14 190 -17 c 0
 184 -36 183 -59 183 -73 c 2
 183 -78 l 2
 183 -136 186 -164 240 -164 c 0
 310 -164 341 -142 355 -131 c 1
 352 -129 349 -128 346 -126 c 4
 324 -112 319 -90 319 -71 c 0
 319 -34 343 -9 372 -9 c 0
 401 -9 424 -34 424 -73 c 0
 424 -124 391 -200 234 -200 c 0
 98 -200 76 -123 76 -71 c 0
172 422 m 0
 172 461 198 500 236 500 c 0
 274 500 302 463 302 422 c 0
 302 383 276 344 237 344 c 0
 199 344 172 381 172 422 c 0
EndSplineSet
EndChar
StartChar: Adieresis
Encoding: 196 196 95
Width: 500
Flags: MW
LayerCount: 2
Fore
SplineSet
159 224 m 1
 278 224 l 1
 218 480 l 1
 159 224 l 1
23 0 m 1
 23 47 l 1
 29 47 28 47 36 47 c 1
 69 49 81 53 85 70 c 2
 224 672 l 2
 231 702 242 698 251 698 c 0
 264 698 270 696 276 672 c 2
 421 47 l 1
 477 47 l 1
 477 47 l 1
 477 0 l 1
 451 3 403 3 375 3 c 0
 347 3 288 3 263 0 c 1
 263 47 l 1
 318 47 l 1
 318 47 l 1
 289 176 l 1
 149 176 l 1
 125 70 l 2
 122 57 122 59 122 58 c 0
 122 46 166 47 174 47 c 1
 174 0 l 1
 161 0 126 3 95 3 c 0
 66 3 41 1 23 0 c 1
278 816 m 0
 278 855 304 894 343 894 c 0
 377 894 409 861 409 816 c 0
 409 774 379 738 343 738 c 0
 309 738 278 771 278 816 c 0
91 816 m 0
 91 860 122 894 156 894 c 0
 190 894 221 862 221 816 c 0
 221 777 196 738 157 738 c 0
 123 738 91 771 91 816 c 0
EndSplineSet
EndChar
StartChar: Ccedilla
Encoding: 199 199 101
Width: 500
Flags: MW
LayerCount: 2
Fore
SplineSet
39 343 m 4
 39 579 156 697 283 697 c 0
 332 697 364 673 392 638 c 1
 432 688 l 2
 438 695 439 697 446 697 c 0
 459 697 460 688 460 669 c 2
 460 454 l 2
 460 428 459 426 440 426 c 0
 430 426 422 426 421 440 c 0
 406 596 347 650 296 650 c 0
 267 650 214 636 182 566 c 1
 155 506 153 411 153 343 c 0
 153 251 159 182 177 132 c 1
 199 71 246 36 297 36 c 0
 356 36 420 100 425 231 c 0
 426 248 432 248 442 248 c 0
 455 248 460 247 460 227 c 0
 460 128 402 0 298 -10 c 1
 298 -30 l 1
 317 -33 378 -46 378 -110 c 0
 378 -181 296 -199 134 -199 c 2
 122 -199 l 1
 122 -163 l 1
 131 -163 l 2
 221 -163 281 -155 282 -110 c 1
 281 -89 268 -61 202 -60 c 1
 202 6 l 1
 108 47 39 161 39 343 c 4
EndSplineSet
EndChar
StartChar: Ntilde
Encoding: 209 209 102
Width: 500
Flags: MW
LayerCount: 2
Fore
SplineSet
63 811 m 1
 105 862 123 894 176 894 c 0
 232 894 287 859 343 859 c 0
 387 859 407 885 416 894 c 1
 437 868 l 1
 395 817 377 786 324 786 c 0
 267 786 215 820 158 820 c 0
 126 820 107 809 84 786 c 1
 63 811 l 1
22 0 m 1
 22 47 l 1
 34 47 l 2
 32 47 53 47 67 50 c 0
 82 53 82 54 82 76 c 2
 82 639 l 1
 82 639 l 1
 22 639 l 1
 22 639 l 1
 22 686 l 1
 158 686 l 2
 172 686 175 686 183 670 c 2
 381 235 l 1
 381 610 l 2
 381 632 381 633 365 636 c 0
 364 636 349 639 333 639 c 2
 321 639 l 1
 321 686 l 1
 344 686 375 683 399 683 c 0
 423 683 452 686 477 686 c 1
 477 639 l 1
 465 639 l 2
 467 639 446 639 432 636 c 0
 417 633 417 632 417 610 c 2
 417 32 l 2
 417 9 418 0 399 0 c 0
 391 0 386 -1 380 13 c 2
 118 584 l 1
 118 584 l 1
 118 76 l 2
 118 54 118 53 134 50 c 0
 135 50 150 47 166 47 c 2
 178 47 l 1
 178 0 l 1
 155 0 124 3 100 3 c 0
 76 3 47 0 22 0 c 1
EndSplineSet
EndChar
StartChar: Odieresis
Encoding: 214 214 111
Width: 500
Flags: MW
LayerCount: 2
Fore
SplineSet
92 816 m 0
 92 859 121 894 156 894 c 0
 190 894 222 861 222 816 c 0
 222 769 188 738 156 738 c 0
 122 738 92 771 92 816 c 0
278 816 m 0
 278 855 305 894 343 894 c 0
 377 894 408 861 408 816 c 0
 408 772 378 738 344 738 c 0
 310 738 278 771 278 816 c 0
37 339 m 0
 37 581 138 697 250 697 c 0
 357 697 461 587 461 339 c 0
 461 105 363 -11 249 -11 c 0
 143 -11 37 96 37 339 c 0
148 352 m 0
 148 284 149 193 168 128 c 0
 182 79 206 31 250 31 c 0
 291 31 322 80 335 138 c 0
 349 202 351 268 351 352 c 0
 351 428 351 488 337 548 c 0
 321 617 288 657 249 657 c 0
 219 657 182 630 161 550 c 1
 148 493 148 416 148 352 c 0
EndSplineSet
EndChar
StartChar: Udieresis
Encoding: 220 220 112
Width: 500
Flags: MW
LayerCount: 2
Fore
SplineSet
22 639 m 1
 22 686 l 1
 45 683 103 683 129 683 c 0
 155 683 214 683 237 686 c 1
 237 639 l 1
 237 639 l 1
 176 639 l 1
 176 210 l 2
 176 165 175 36 265 36 c 0
 318 36 382 79 382 230 c 2
 382 610 l 2
 382 632 381 633 365 636 c 0
 360 637 348 639 334 639 c 2
 321 639 l 1
 321 686 l 1
 344 685 375 683 399 683 c 0
 422 683 453 685 477 686 c 1
 477 639 l 1
 464 639 l 2
 459 639 446 639 432 636 c 0
 416 633 416 632 416 610 c 2
 416 227 l 2
 416 212 415 198 414 184 c 0
 403 73 352 -11 263 -11 c 0
 150 -11 83 93 83 229 c 2
 83 639 l 1
 22 639 l 1
 22 639 l 1
278 816 m 0
 278 855 305 894 343 894 c 0
 377 894 408 861 408 816 c 0
 408 773 379 738 344 738 c 0
 310 738 278 771 278 816 c 0
92 816 m 0
 92 859 121 894 156 894 c 0
 190 894 222 861 222 816 c 0
 222 769 188 738 156 738 c 0
 122 738 92 771 92 816 c 0
EndSplineSet
EndChar
StartChar: germandbls
Encoding: 223 223 99
Width: 500
Flags: MW
LayerCount: 2
Fore
SplineSet
29 0 m 1
 29 48 l 1
 29 48 l 1
 88 48 l 1
 88 48 l 1
 88 397 l 1
 29 397 l 1
 29 445 l 1
 88 445 l 1
 88 532 l 2
 88 539 87 546 87 553 c 0
 87 670 162 700 251 700 c 2
 257 700 l 2
 323 700 392 671 392 556 c 0
 392 403 337 425 318 417 c 0
 303 410 291 391 291 360 c 0
 291 296 336 292 343 291 c 0
 356 288 409 284 444 227 c 0
 457 206 467 177 467 140 c 0
 467 74 442 -5 341 -5 c 0
 318 -5 301 0 281 16 c 1
 267 5 256 -5 246 -5 c 0
 234 -5 232 6 232 18 c 2
 232 133 l 2
 232 144 233 152 240 155 c 0
 243 156 247 157 252 157 c 0
 267 157 270 150 273 134 c 0
 281 85 292 31 341 31 c 0
 395 31 408 70 408 105 c 0
 408 139 390 163 370 174 c 0
 347 187 314 182 282 206 c 1
 247 234 232 280 232 324 c 0
 232 369 247 411 273 432 c 0
 298 452 316 450 328 452 c 0
 345 455 351 465 352 550 c 0
 352 615 339 663 254 663 c 0
 180 663 178 607 178 558 c 2
 178 0 l 1
 146 3 l 1
 89 2 l 0
 29 0 l 1
EndSplineSet
EndChar
StartChar: agrave
Encoding: 224 224 123
Width: 500
Flags: MW
LayerCount: 2
Fore
SplineSet
158 599 m 0
 158 630 180 662 208 662 c 0
 223 662 233 653 246 639 c 0
 265 619 333 545 342 534 c 1
 321 494 l 1
 256 521 215 535 192 548 c 0
 164 563 158 574 158 599 c 0
38 108 m 4
 38 186 101 224 170 244 c 4
 229 261 292 264 321 265 c 5
 321 299 l 6
 321 375 290 417 225 417 c 4
 215 417 186 416 162 410 c 5
 165 408 182 391 182 361 c 4
 182 319 154 298 127 298 c 4
 103 298 73 317 73 361 c 4
 73 401 94 423 123 436 c 4
 157 451 202 453 229 453 c 4
 294 453 343 437 374 409 c 4
 405 382 420 343 420 299 c 6
 420 84 l 6
 420 61 420 48 473 47 c 4
 484 47 496 47 496 24 c 4
 496 0 485 0 468 0 c 6
 426 0 l 6
 335 0 336 46 336 77 c 5
 317 35 276 -6 206 -6 c 4
 146 -6 38 12 38 108 c 4
140 109 m 4
 140 65 175 30 219 30 c 4
 241 30 321 43 321 139 c 6
 321 234 l 5
 277 231 140 217 140 109 c 4
EndSplineSet
EndChar
StartChar: aacute
Encoding: 225 225 125
Width: 500
Flags: MW
LayerCount: 2
Fore
SplineSet
158 535 m 1
 265 653 269 662 292 662 c 0
 319 662 342 630 342 599 c 0
 342 554 309 546 229 514 c 0
 214 508 197 502 179 494 c 1
 158 535 l 1
38 108 m 4
 38 186 101 224 170 244 c 4
 229 261 292 264 321 265 c 5
 321 299 l 6
 321 375 290 417 225 417 c 4
 215 417 186 416 162 410 c 5
 165 408 182 391 182 361 c 4
 182 319 154 298 127 298 c 4
 103 298 73 317 73 361 c 4
 73 401 94 423 123 436 c 4
 157 451 202 453 229 453 c 4
 294 453 343 437 374 409 c 4
 405 382 420 343 420 299 c 6
 420 84 l 6
 420 61 420 48 473 47 c 4
 484 47 496 47 496 24 c 4
 496 0 485 0 468 0 c 6
 426 0 l 6
 335 0 336 46 336 77 c 5
 317 35 276 -6 206 -6 c 4
 146 -6 38 12 38 108 c 4
140 109 m 4
 140 65 175 30 219 30 c 4
 241 30 321 43 321 139 c 6
 321 234 l 5
 277 231 140 217 140 109 c 4
EndSplineSet
EndChar
StartChar: adieresis
Encoding: 228 228 113
Width: 500
Flags: MW
LayerCount: 2
Fore
SplineSet
91 608 m 4
 91 647 118 686 157 686 c 4
 191 686 221 653 221 608 c 4
 221 565 193 530 157 530 c 4
 123 530 91 563 91 608 c 4
279 608 m 0
 279 651 308 686 343 686 c 0
 377 686 409 653 409 608 c 0
 409 561 375 530 343 530 c 0
 309 530 279 563 279 608 c 0
38 108 m 4
 38 186 101 224 170 244 c 4
 229 261 292 264 321 265 c 5
 321 299 l 6
 321 375 290 417 225 417 c 4
 215 417 186 416 162 410 c 5
 165 408 182 391 182 361 c 4
 182 319 154 298 127 298 c 4
 103 298 73 317 73 361 c 4
 73 401 94 423 123 436 c 4
 157 451 202 453 229 453 c 4
 294 453 343 437 374 409 c 4
 405 382 420 343 420 299 c 6
 420 84 l 6
 420 61 420 48 473 47 c 4
 484 47 496 47 496 24 c 4
 496 0 485 0 468 0 c 6
 426 0 l 6
 335 0 336 46 336 77 c 5
 317 35 276 -6 206 -6 c 4
 146 -6 38 12 38 108 c 4
140 109 m 4
 140 65 175 30 219 30 c 4
 241 30 321 43 321 139 c 6
 321 234 l 5
 277 231 140 217 140 109 c 4
EndSplineSet
EndChar
StartChar: ccedilla
Encoding: 231 231 100
Width: 500
Flags: MW
LayerCount: 2
Fore
SplineSet
58 222 m 0
 58 338 122 453 278 453 c 0
 329 453 430 447 430 361 c 0
 430 319 403 298 376 298 c 0
 352 298 322 317 322 361 c 0
 322 370 324 391 340 407 c 1
 329 410 312 413 282 413 c 0
 170 413 170 283 170 227 c 0
 170 181 171 34 292 34 c 0
 336 34 377 53 400 116 c 0
 404 129 404 131 420 131 c 0
 429 131 442 131 442 117 c 0
 442 110 418 7 298 -5 c 1
 298 -30 l 1
 317 -33 378 -46 378 -110 c 0
 378 -181 296 -199 134 -199 c 2
 122 -199 l 1
 122 -163 l 1
 131 -163 l 2
 221 -163 281 -155 282 -110 c 1
 281 -89 268 -61 202 -60 c 1
 202 4 l 17
 111 32 58 115 58 222 c 0
EndSplineSet
EndChar
StartChar: eacute
Encoding: 233 233 97
Width: 500
Flags: MW
LayerCount: 2
Fore
SplineSet
158 535 m 1
 265 653 269 662 292 662 c 0
 319 662 342 630 342 599 c 0
 342 554 309 546 229 514 c 0
 214 508 197 502 179 494 c 1
 158 535 l 1
49 225 m 0
 49 350 125 453 264 453 c 0
 324 453 371 435 403 399 c 0
 447 349 451 276 451 245 c 0
 451 218 442 218 423 218 c 2
 160 218 l 1
 160 186 160 123 190 80 c 4
 208 53 237 34 284 34 c 0
 341 34 391 66 409 114 c 0
 414 130 415 135 430 135 c 0
 434 135 451 135 451 117 c 0
 451 100 414 -6 276 -6 c 0
 136 -6 49 91 49 225 c 0
160 251 m 1
 369 251 l 1
 368 286 366 417 264 417 c 0
 239 417 204 405 181 365 c 0
 163 332 162 290 160 251 c 1
EndSplineSet
EndChar
StartChar: ecircumflex
Encoding: 234 234 119
Width: 500
Flags: MW
LayerCount: 2
Fore
SplineSet
117 510 m 1
 250 658 l 1
 251 658 l 1
 383 510 l 1
 357 474 l 1
 251 576 l 1
 250 576 l 1
 143 474 l 1
 117 510 l 1
49 225 m 0
 49 350 125 453 264 453 c 0
 324 453 371 435 403 399 c 0
 447 349 451 276 451 245 c 0
 451 218 442 218 423 218 c 2
 160 218 l 1
 160 186 160 123 190 80 c 4
 208 53 237 34 284 34 c 0
 341 34 391 66 409 114 c 0
 414 130 415 135 430 135 c 0
 434 135 451 135 451 117 c 0
 451 100 414 -6 276 -6 c 0
 136 -6 49 91 49 225 c 0
160 251 m 1
 369 251 l 1
 368 286 366 417 264 417 c 0
 239 417 204 405 181 365 c 0
 163 332 162 290 160 251 c 1
EndSplineSet
EndChar
StartChar: edieresis
Encoding: 235 235 114
Width: 500
Flags: MW
LayerCount: 2
Fore
SplineSet
91 608 m 4
 91 647 118 686 157 686 c 4
 191 686 221 653 221 608 c 4
 221 565 193 530 157 530 c 4
 123 530 91 563 91 608 c 4
279 608 m 0
 279 651 308 686 343 686 c 0
 377 686 409 653 409 608 c 0
 409 561 375 530 343 530 c 0
 309 530 279 563 279 608 c 0
49 225 m 0
 49 350 125 453 264 453 c 0
 324 453 371 435 403 399 c 0
 447 349 451 276 451 245 c 0
 451 218 442 218 423 218 c 2
 160 218 l 1
 160 186 160 123 190 80 c 4
 208 53 237 34 284 34 c 0
 341 34 391 66 409 114 c 0
 414 130 415 135 430 135 c 0
 434 135 451 135 451 117 c 0
 451 100 414 -6 276 -6 c 0
 136 -6 49 91 49 225 c 0
160 251 m 1
 369 251 l 1
 368 286 366 417 264 417 c 0
 239 417 204 405 181 365 c 0
 163 332 162 290 160 251 c 1
EndSplineSet
EndChar
StartChar: iacute
Encoding: 237 237 98
Width: 500
Flags: MW
LayerCount: 2
Fore
SplineSet
158 535 m 1
 265 653 269 662 292 662 c 0
 319 662 342 630 342 599 c 0
 342 554 309 546 229 514 c 0
 214 508 197 502 179 494 c 1
 158 535 l 1
146 0 m 5
 146 47 l 5
 206 47 l 5
 206 356 l 6
 206 395 200 395 149 395 c 5
 149 442 l 5
 300 450 l 5
 300 47 l 5
 354 47 l 5
 354 0 l 5
 323 1 278 3 252 3 c 4
 215 3 173 1 146 0 c 5
EndSplineSet
EndChar
StartChar: icircumflex
Encoding: 238 238 120
Width: 500
Flags: MW
LayerCount: 2
Fore
SplineSet
117 510 m 1
 250 658 l 1
 251 658 l 1
 383 510 l 1
 357 474 l 1
 251 576 l 1
 250 576 l 1
 143 474 l 1
 117 510 l 1
146 0 m 5
 146 47 l 5
 206 47 l 5
 206 356 l 6
 206 395 200 395 149 395 c 5
 149 442 l 5
 300 450 l 5
 300 47 l 5
 354 47 l 5
 354 0 l 5
 323 1 278 3 252 3 c 4
 215 3 173 1 146 0 c 5
EndSplineSet
EndChar
StartChar: idieresis
Encoding: 239 239 115
Width: 500
Flags: MW
LayerCount: 2
Fore
SplineSet
91 608 m 4
 91 647 118 686 157 686 c 4
 191 686 221 653 221 608 c 4
 221 565 193 530 157 530 c 4
 123 530 91 563 91 608 c 4
279 608 m 0
 279 651 308 686 343 686 c 0
 377 686 409 653 409 608 c 0
 409 561 375 530 343 530 c 0
 309 530 279 563 279 608 c 0
146 0 m 1
 146 47 l 1
 206 47 l 1
 206 47 l 1
 206 356 l 2
 206 395 200 395 149 395 c 1
 149 442 l 1
 300 450 l 1
 300 47 l 5
 300 47 l 1
 354 47 l 1
 354 0 l 1
 323 1 278 3 252 3 c 0
 215 3 173 1 146 0 c 1
EndSplineSet
EndChar
StartChar: ntilde
Encoding: 241 241 103
Width: 500
Flags: MW
LayerCount: 2
Fore
SplineSet
90 568 m 1
 129 619 147 651 191 651 c 0
 238 651 278 617 325 617 c 0
 353 617 368 629 388 651 c 1
 410 626 l 1
 370 575 352 543 308 543 c 0
 262 543 222 577 175 577 c 0
 147 577 132 565 111 543 c 1
 90 568 l 1
12 0 m 1
 12 47 l 1
 72 47 l 1
 72 47 l 1
 72 356 l 2
 72 395 66 395 12 395 c 1
 12 442 l 1
 162 450 l 1
 162 342 l 1
 185 393 210 450 294 450 c 0
 339 450 373 439 396 414 c 0
 417 391 428 356 428 306 c 2
 428 47 l 5
 428 47 l 1
 488 47 l 1
 488 0 l 1
 464 1 412 3 378 3 c 0
 345 3 292 1 268 0 c 1
 268 47 l 1
 328 47 l 1
 328 47 l 1
 328 317 l 2
 328 393 310 414 280 414 c 0
 225 414 172 365 172 256 c 2
 172 47 l 1
 172 47 l 1
 232 47 l 1
 232 0 l 1
 208 1 156 3 122 3 c 0
 89 3 36 1 12 0 c 1
EndSplineSet
EndChar
StartChar: oacute
Encoding: 243 243 106
Width: 500
Flags: MW
LayerCount: 2
Fore
SplineSet
158 535 m 1
 265 653 269 662 292 662 c 0
 319 662 342 630 342 599 c 0
 342 554 309 546 229 514 c 0
 214 508 197 502 179 494 c 1
 158 535 l 1
28 218 m 0
 28 351 107 453 250 453 c 0
 392 453 472 352 472 218 c 0
 472 95 396 -6 250 -6 c 0
 105 -6 28 94 28 218 c 0
139 229 m 0
 139 184 139 133 155 94 c 0
 170 59 197 34 250 34 c 0
 298 34 325 54 341 84 c 4
 361 124 361 180 361 229 c 0
 361 277 360 332 342 366 c 0
 323 401 287 417 250 417 c 0
 207 417 171 396 154 359 c 0
 139 325 139 274 139 229 c 0
EndSplineSet
EndChar
StartChar: ocircumflex
Encoding: 244 244 121
Width: 500
Flags: MW
LayerCount: 2
Fore
SplineSet
117 510 m 1
 250 658 l 1
 251 658 l 1
 383 510 l 1
 357 474 l 1
 251 576 l 1
 250 576 l 1
 143 474 l 1
 117 510 l 1
28 218 m 0
 28 351 107 453 250 453 c 0
 392 453 472 352 472 218 c 0
 472 95 396 -6 250 -6 c 0
 105 -6 28 94 28 218 c 0
139 229 m 0
 139 184 139 133 155 94 c 0
 170 59 197 34 250 34 c 0
 298 34 325 54 341 84 c 4
 361 124 361 180 361 229 c 0
 361 277 360 332 342 366 c 0
 323 401 287 417 250 417 c 0
 207 417 171 396 154 359 c 0
 139 325 139 274 139 229 c 0
EndSplineSet
EndChar
StartChar: odieresis
Encoding: 246 246 116
Width: 500
Flags: MW
LayerCount: 2
Fore
SplineSet
91 608 m 4
 91 647 118 686 157 686 c 4
 191 686 221 653 221 608 c 4
 221 565 193 530 157 530 c 4
 123 530 91 563 91 608 c 4
279 608 m 0
 279 651 308 686 343 686 c 0
 377 686 409 653 409 608 c 0
 409 561 375 530 343 530 c 0
 309 530 279 563 279 608 c 0
28 218 m 0
 28 351 107 453 250 453 c 0
 392 453 472 352 472 218 c 0
 472 95 396 -6 250 -6 c 0
 105 -6 28 94 28 218 c 0
139 229 m 0
 139 184 139 133 155 94 c 0
 170 59 197 34 250 34 c 0
 298 34 325 54 341 84 c 4
 361 124 361 180 361 229 c 0
 361 277 360 332 342 366 c 0
 323 401 287 417 250 417 c 0
 207 417 171 396 154 359 c 0
 139 325 139 274 139 229 c 0
EndSplineSet
EndChar
StartChar: ugrave
Encoding: 249 249 96
Width: 500
Flags: MW
LayerCount: 2
Fore
SplineSet
158 599 m 0
 158 630 180 662 208 662 c 0
 223 662 233 653 246 639 c 0
 265 619 333 545 342 534 c 1
 321 494 l 1
 256 521 215 535 192 548 c 0
 164 563 158 574 158 599 c 0
12 395 m 1
 12 442 l 1
 172 450 l 1
 172 109 l 2
 172 55 173 30 240 30 c 0
 304 30 328 83 328 165 c 2
 328 356 l 2
 328 395 322 395 268 395 c 1
 268 442 l 1
 428 450 l 1
 428 86 l 2
 428 47 434 47 488 47 c 1
 488 0 l 1
 334 -6 l 1
 334 72 l 1
 294 -6 251 -6 228 -6 c 0
 142 -6 72 16 72 123 c 2
 72 356 l 2
 72 395 66 395 12 395 c 1
EndSplineSet
EndChar
StartChar: ucircumflex
Encoding: 251 251 122
Width: 500
Flags: MW
LayerCount: 2
Fore
SplineSet
117 510 m 1
 250 658 l 1
 251 658 l 1
 383 510 l 1
 357 474 l 1
 251 576 l 1
 250 576 l 1
 143 474 l 1
 117 510 l 1
12 395 m 1
 12 442 l 1
 172 450 l 1
 172 109 l 2
 172 55 173 30 240 30 c 0
 304 30 328 83 328 165 c 2
 328 356 l 2
 328 395 322 395 268 395 c 1
 268 442 l 1
 428 450 l 1
 428 86 l 2
 428 47 434 47 488 47 c 1
 488 0 l 1
 334 -6 l 1
 334 72 l 1
 294 -6 251 -6 228 -6 c 0
 142 -6 72 16 72 123 c 2
 72 356 l 2
 72 395 66 395 12 395 c 1
EndSplineSet
EndChar
StartChar: udieresis
Encoding: 252 252 117
Width: 500
Flags: MW
LayerCount: 2
Fore
SplineSet
91 608 m 4
 91 647 118 686 157 686 c 4
 191 686 221 653 221 608 c 4
 221 565 193 530 157 530 c 4
 123 530 91 563 91 608 c 4
279 608 m 0
 279 651 308 686 343 686 c 0
 377 686 409 653 409 608 c 0
 409 561 375 530 343 530 c 0
 309 530 279 563 279 608 c 0
12 395 m 1
 12 442 l 1
 172 450 l 1
 172 109 l 2
 172 55 173 30 240 30 c 0
 304 30 328 83 328 165 c 2
 328 356 l 2
 328 395 322 395 268 395 c 1
 268 442 l 1
 428 450 l 1
 428 86 l 2
 428 47 434 47 488 47 c 1
 488 0 l 1
 334 -6 l 1
 334 72 l 1
 294 -6 251 -6 228 -6 c 0
 142 -6 72 16 72 123 c 2
 72 356 l 2
 72 395 66 395 12 395 c 1
EndSplineSet
EndChar
StartChar: quoteleft
Encoding: 8216 8216 135
Width: 500
Flags: MW
LayerCount: 2
Fore
SplineSet
293 470 m 0
 293 604 383 693 399 693 c 0
 407 693 415 685 415 675 c 0
 415 651 342 628 326 494 c 0
 325 488 324 482 324 476 c 1
 340 492 355 500 375 500 c 0
 415 500 442 465 442 422 c 0
 442 383 418 344 375 344 c 0
 326 344 293 399 293 470 c 0
EndSplineSet
EndChar
StartChar: quotedblleft
Encoding: 8220 8220 134
Width: 500
Flags: MW
LayerCount: 2
Fore
SplineSet
293 470 m 0
 293 604 383 693 399 693 c 0
 407 693 415 685 415 675 c 0
 415 651 342 628 326 494 c 4
 325 488 324 482 324 476 c 1
 340 492 355 500 375 500 c 0
 415 500 442 465 442 422 c 0
 442 383 418 344 375 344 c 0
 326 344 293 399 293 470 c 0
58 470 m 0
 58 604 148 693 164 693 c 0
 172 693 181 685 181 675 c 0
 181 651 107 628 91 494 c 0
 90 488 89 482 89 476 c 1
 105 492 120 500 140 500 c 0
 180 500 208 465 208 422 c 0
 208 383 183 344 140 344 c 0
 91 344 58 399 58 470 c 0
EndSplineSet
EndChar
StartChar: overline
Encoding: 8254 8254 94
Width: 500
Flags: MW
LayerCount: 2
Fore
SplineSet
54 628 m 1
 54 689 l 1
 444 689 l 1
 444 628 l 1
 54 628 l 1
EndSplineSet
EndChar
StartChar: celsius
Encoding: 8451 8451 137
Width: 500
Flags: MW
LayerCount: 2
Fore
SplineSet
1 555 m 0
 1 630 25 687 67 687 c 0
 107 687 133 632 133 554 c 0
 133 478 108 422 66 422 c 0
 26 422 1 477 1 555 c 0
35 554 m 0
 35 509 47 479 66 479 c 0
 88 479 100 511 100 555 c 0
 100 599 86 630 67 630 c 0
 45 630 35 598 35 554 c 0
130 343 m 0
 130 548 207 695 340 695 c 0
 370 695 405 686 440 632 c 1
 475 686 l 2
 479 692 480 695 485 695 c 0
 495 695 496 685 496 665 c 2
 496 457 l 2
 496 429 494 428 480 428 c 0
 466 428 467 430 465 450 c 0
 454 571 406 653 352 653 c 0
 324 653 280 633 248 572 c 1
 212 501 215 384 215 344 c 0
 215 258 218 181 244 122 c 1
 268 71 309 34 354 34 c 0
 403 34 465 99 469 230 c 0
 469 249 476 247 482 247 c 0
 491 247 496 248 496 225 c 0
 496 110 438 -8 340 -8 c 0
 207 -8 130 139 130 343 c 0
EndSplineSet
EndChar
StartChar: minus
Encoding: 8722 8722 131
Width: 500
Flags: MW
LayerCount: 2
Fore
SplineSet
38 250 m 0
 38 266 55 268 66 268 c 2
 430 268 l 1
 435 268 441 268 446 267 c 0
 456 266 462 261 462 250 c 0
 462 240 457 235 450 233 c 0
 446 232 440 232 436 232 c 2
 70 232 l 1
 66 232 61 232 58 232 c 0
 45 233 38 238 38 250 c 0
EndSplineSet
EndChar
StartChar: hvhorizform
Encoding: 9473 9473 139
Width: 500
Flags: W
LayerCount: 2
Fore
SplineSet
0 210 m 1
 0 390 l 1
 500 390 l 1
 500 210 l 1
 0 210 l 1
EndSplineSet
EndChar
StartChar: ltvertform
Encoding: 9474 9474 140
Width: 500
Flags: W
LayerCount: 2
Fore
SplineSet
220 -200 m 1
 220 800 l 1
 280 800 l 1
 280 -200 l 1
 220 -200 l 1
EndSplineSet
EndChar
StartChar: hvvertform
Encoding: 9475 9475 141
Width: 500
Flags: W
LayerCount: 2
Fore
SplineSet
160 -200 m 1
 160 800 l 1
 340 800 l 1
 340 -200 l 1
 160 -200 l 1
EndSplineSet
EndChar
StartChar: hvdashtriphorizform
Encoding: 9477 9477 143
Width: 500
Flags: W
LayerCount: 2
Fore
SplineSet
30 210 m 1
 30 390 l 1
 137 390 l 1
 137 210 l 1
 30 210 l 1
196.5 210 m 1
 196.5 390 l 1
 303.5 390 l 1
 303.5 210 l 1
 196.5 210 l 1
363 210 m 1
 363 390 l 1
 470 390 l 1
 470 210 l 1
 363 210 l 1
EndSplineSet
EndChar
StartChar: hvdashquadhorizform
Encoding: 9481 9481 147
Width: 500
Flags: W
LayerCount: 2
Fore
SplineSet
20.25 210 m 1
 20.25 390 l 1
 103.75 390 l 1
 103.75 210 l 1
 20.25 210 l 1
145.75 210 m 1
 145.75 390 l 1
 228.75 390 l 1
 228.75 210 l 1
 145.75 210 l 1
270.25 210 m 1
 270.25 390 l 1
 353.75 390 l 1
 353.75 210 l 1
 270.25 210 l 1
395.25 210 m 1
 395.25 390 l 1
 478.75 390 l 1
 478.75 210 l 1
 395.25 210 l 1
EndSplineSet
EndChar
StartChar: hvdashquadvertform
Encoding: 9483 9483 149
Width: 500
Flags: W
LayerCount: 2
Fore
SplineSet
160 9 m 1
 340 9 l 1
 340 -158 l 1
 160 -158 l 1
 160 9 l 1
160 92 m 1
 160 259 l 1
 340 259 l 1
 340 92 l 1
 160 92 l 1
160 342 m 1
 160 508 l 1
 340 508 l 1
 340 342 l 1
 160 342 l 1
160 592 m 1
 160 759 l 1
 340 759 l 1
 340 592 l 1
 160 592 l 1
EndSplineSet
EndChar
StartChar: ltdnrtform
Encoding: 9484 9484 150
Width: 500
Flags: W
LayerCount: 2
Fore
SplineSet
220 -200 m 1
 220 330 l 1
 500 330 l 1
 500 270 l 1
 280 270 l 1
 280 -200 l 1
 220 -200 l 1
EndSplineSet
EndChar
StartChar: dnltrthvform
Encoding: 9485 9485 151
Width: 500
Flags: W
LayerCount: 2
Fore
SplineSet
220 -200 m 1
 220 390 l 1
 500 390 l 1
 500 210 l 1
 280 210 l 1
 280 -200 l 1
 220 -200 l 1
EndSplineSet
EndChar
StartChar: dnhvrtltform
Encoding: 9486 9486 152
Width: 500
Flags: W
LayerCount: 2
Fore
SplineSet
160 -200 m 1
 160 330 l 1
 500 330 l 1
 500 270 l 1
 340 270 l 1
 340 -200 l 1
 160 -200 l 1
EndSplineSet
EndChar
StartChar: ltdnleftform
Encoding: 9488 9488 154
Width: 500
Flags: W
LayerCount: 2
Fore
SplineSet
0 270 m 1
 0 330 l 1
 280 330 l 1
 280 -200 l 1
 220 -200 l 1
 220 270 l 1
 0 270 l 1
EndSplineSet
EndChar
StartChar: dnltlefthvform
Encoding: 9489 9489 155
Width: 500
Flags: W
LayerCount: 2
Fore
SplineSet
0 210 m 1
 0 390 l 1
 280 390 l 1
 280 -200 l 1
 220 -200 l 1
 220 210 l 1
 0 210 l 1
EndSplineSet
EndChar
StartChar: hvdnleftform
Encoding: 9491 9491 157
Width: 500
Flags: W
LayerCount: 2
Fore
SplineSet
0 210 m 1
 0 390 l 1
 340 390 l 1
 340 -200 l 1
 160 -200 l 1
 160 210 l 1
 0 210 l 1
EndSplineSet
EndChar
StartChar: upltrthvform
Encoding: 9493 9493 159
Width: 500
Flags: W
LayerCount: 2
Fore
SplineSet
220 210 m 1
 220 800 l 1
 280 800 l 1
 280 390 l 1
 500 390 l 1
 500 210 l 1
 220 210 l 1
EndSplineSet
EndChar
StartChar: uphvrtltform
Encoding: 9494 9494 160
Width: 500
Flags: W
LayerCount: 2
Fore
SplineSet
160 270 m 1
 160 800 l 1
 340 800 l 1
 340 330 l 1
 500 330 l 1
 500 270 l 1
 160 270 l 1
EndSplineSet
EndChar
StartChar: ltupleftform
Encoding: 9496 9496 162
Width: 500
Flags: W
LayerCount: 2
Fore
SplineSet
0 270 m 1
 0 330 l 1
 220 330 l 1
 220 800 l 1
 280 800 l 1
 280 270 l 1
 0 270 l 1
EndSplineSet
EndChar
StartChar: dnhvrtupltform
Encoding: 9503 9503 169
Width: 500
Flags: W
LayerCount: 2
Fore
SplineSet
160 -200 m 1
 160 330 l 1
 220 330 l 1
 220 800 l 1
 280 800 l 1
 280 330 l 1
 500 330 l 1
 500 270 l 1
 340 270 l 1
 340 -200 l 1
 160 -200 l 1
EndSplineSet
EndChar
StartChar: dnltrtuphvform
Encoding: 9505 9505 171
Width: 500
Flags: W
LayerCount: 2
Fore
SplineSet
160 210 m 1
 160 800 l 1
 340 800 l 1
 340 390 l 1
 500 390 l 1
 500 210 l 1
 280 210 l 1
 280 -200 l 1
 220 -200 l 1
 220 210 l 1
 160 210 l 1
EndSplineSet
EndChar
StartChar: hvvertrtform
Encoding: 9507 9507 173
Width: 500
Flags: W
LayerCount: 2
Fore
SplineSet
160 -200 m 1
 160 800 l 1
 340 800 l 1
 340 390 l 1
 500 390 l 1
 500 210 l 1
 340 210 l 1
 340 -200 l 1
 160 -200 l 1
EndSplineSet
EndChar
StartChar: ltvertleftform
Encoding: 9508 9508 174
Width: 500
Flags: W
LayerCount: 2
Fore
SplineSet
0 270 m 1
 0 330 l 1
 220 330 l 1
 220 800 l 1
 280 800 l 1
 280 -200 l 1
 220 -200 l 1
 220 270 l 1
 0 270 l 1
EndSplineSet
EndChar
StartChar: ltdnhorizform
Encoding: 9516 9516 182
Width: 500
Flags: W
LayerCount: 2
Fore
SplineSet
0 270 m 1
 0 330 l 1
 500 330 l 1
 500 270 l 1
 280 270 l 1
 280 -200 l 1
 220 -200 l 1
 220 270 l 1
 0 270 l 1
EndSplineSet
EndChar
StartChar: lefthvrtdnltform
Encoding: 9517 9517 183
Width: 500
Flags: W
LayerCount: 2
Fore
SplineSet
0 210 m 1
 0 390 l 1
 280 390 l 1
 280 330 l 1
 500 330 l 1
 500 270 l 1
 280 270 l 1
 280 -200 l 1
 220 -200 l 1
 220 210 l 1
 0 210 l 1
EndSplineSet
EndChar
StartChar: rtltrtdnhvform
Encoding: 9521 9521 187
Width: 500
Flags: W
LayerCount: 2
Fore
SplineSet
0 210 m 1
 0 390 l 1
 340 390 l 1
 340 330 l 1
 500 330 l 1
 500 270 l 1
 340 270 l 1
 340 -200 l 1
 160 -200 l 1
 160 210 l 1
 0 210 l 1
EndSplineSet
EndChar
StartChar: hvdnhorizform
Encoding: 9523 9523 189
Width: 500
Flags: W
LayerCount: 2
Fore
SplineSet
0 210 m 1
 0 390 l 1
 500 390 l 1
 500 210 l 1
 340 210 l 1
 340 -200 l 1
 160 -200 l 1
 160 210 l 1
 0 210 l 1
EndSplineSet
EndChar
StartChar: uphvhorizltform
Encoding: 9528 9528 194
Width: 500
Flags: W
LayerCount: 2
Fore
SplineSet
0 270 m 1
 0 330 l 1
 160 330 l 1
 160 800 l 1
 340 800 l 1
 340 330 l 1
 500 330 l 1
 500 270 l 1
 0 270 l 1
EndSplineSet
EndChar
StartChar: hvuphorizform
Encoding: 9531 9531 197
Width: 500
Flags: W
LayerCount: 2
Fore
SplineSet
0 210 m 1
 0 390 l 1
 160 390 l 1
 160 800 l 1
 340 800 l 1
 340 390 l 1
 500 390 l 1
 500 210 l 1
 0 210 l 1
EndSplineSet
EndChar
StartChar: rthvleftvertltform
Encoding: 9534 9534 200
Width: 500
Flags: W
LayerCount: 2
Fore
SplineSet
0 270 m 1
 0 330 l 1
 220 330 l 1
 220 800 l 1
 280 800 l 1
 280 390 l 1
 500 390 l 1
 500 210 l 1
 280 210 l 1
 280 -200 l 1
 220 -200 l 1
 220 270 l 1
 0 270 l 1
EndSplineSet
EndChar
StartChar: dnhvuphorizltform
Encoding: 9537 9537 203
Width: 500
Flags: W
LayerCount: 2
Fore
SplineSet
0 270 m 1
 0 330 l 1
 220 330 l 1
 220 800 l 1
 280 800 l 1
 280 330 l 1
 500 330 l 1
 500 270 l 1
 340 270 l 1
 340 -200 l 1
 160 -200 l 1
 160 270 l 1
 0 270 l 1
EndSplineSet
EndChar
StartChar: leftuphvrtdnltform
Encoding: 9539 9539 205
Width: 500
Flags: W
LayerCount: 2
Fore
SplineSet
0 210 m 1
 0 390 l 1
 160 390 l 1
 160 800 l 1
 340 800 l 1
 340 330 l 1
 500 330 l 1
 500 270 l 1
 340 270 l 1
 340 210 l 1
 280 210 l 1
 280 -200 l 1
 220 -200 l 1
 220 210 l 1
 0 210 l 1
EndSplineSet
EndChar
StartChar: leftdnhvrtupltform
Encoding: 9541 9541 207
Width: 500
Flags: W
LayerCount: 2
Fore
SplineSet
0 210 m 1
 0 390 l 1
 220 390 l 1
 220 800 l 1
 280 800 l 1
 280 390 l 1
 340 390 l 1
 340 330 l 1
 500 330 l 1
 500 270 l 1
 340 270 l 1
 340 -200 l 1
 160 -200 l 1
 160 210 l 1
 0 210 l 1
EndSplineSet
EndChar
StartChar: female
Encoding: 9792 9792 214
Width: 500
Flags: W
LayerCount: 2
Fore
SplineSet
118 500 m 0
 118 428 177 368 250 368 c 0
 322 368 382 427 382 500 c 0
 382 572 323 632 250 632 c 0
 178 632 118 573 118 500 c 0
50 149 m 1
 50 218 l 1
 216 218 l 1
 216 303 l 1
 126 319 50 398 50 500 c 0
 50 610 140 700 250 700 c 0
 360 700 450 610 450 500 c 0
 450 398 374 319 284 303 c 1
 284 218 l 1
 450 218 l 1
 450 149 l 1
 284 149 l 1
 284 0 l 1
 278 0 l 1
 222 0 l 1
 216 0 l 1
 216 149 l 1
 50 149 l 1
EndSplineSet
Colour: ff
EndChar
StartChar: male
Encoding: 9794 9794 215
Width: 500
Flags: W
LayerCount: 2
Fore
SplineSet
212 43 m 0
 286 43 344 102 344 176 c 0
 344 250 284 307 210 307 c 0
 136 307 79 248 79 174 c 0
 79 100 138 43 212 43 c 0
11 173 m 0
 11 286 96 375 211 375 c 0
 213 375 214 375 216 375 c 1
 258 582 l 1
 96 474 l 1
 58 531 l 1
 317 704 l 1
 489 445 l 1
 432 407 l 1
 325 568 l 1
 284 361 l 1
 351 335 412 265 412 177 c 0
 412 65 326 -26 213 -26 c 0
 101 -26 11 60 11 173 c 0
EndSplineSet
Colour: ff
EndChar
StartChar: zero.slash
Encoding: 63032 63032 127
Width: 500
Flags: MW
LayerCount: 2
Fore
SplineSet
342 528 m 1
 174 74 l 1
 194 37 227 25 250 25 c 0
 276 25 331 39 343 132 c 0
 349 184 349 275 349 331 c 0
 349 389 349 459 344 508 c 0
 343 515 343 522 342 528 c 1
151 331 m 4
 151 285 157 204 158 148 c 0
 158 140 158 133 158 126 c 1
 326 575 l 1
 307 606 277 619 250 619 c 0
 229 619 168 609 158 520 c 1
 151 468 151 403 151 331 c 4
39 319 m 0
 39 382 39 504 96 582 c 0
 127 625 176 655 250 655 c 0
 316 655 362 631 393 596 c 0
 461 519 461 385 461 319 c 0
 461 252 460 128 397 52 c 0
 366 14 320 -11 250 -11 c 0
 180 -11 134 14 103 52 c 0
 40 128 39 253 39 319 c 0
EndSplineSet
EndChar
